<svg xmlns="http://www.w3.org/2000/svg" xmlns:xlink="http://www.w3.org/1999/xlink" viewBox="0 0 831.29 485.71"><defs><style>.cls-1{fill:none;}.cls-2{fill:#0b56a1;}.cls-3{fill:#47bee9;}.cls-4{fill:#0e57a1;}.cls-5{fill:#dedc00;}.cls-6{fill:#fff;}.cls-7{clip-path:url(#clip-path);}.cls-8{fill:#3da3dc;}.cls-9{fill:#dedc03;}.cls-10{fill:#060306;}</style><clipPath id="clip-path"><path class="cls-1" d="M531.08,2.9l-263.42,231c-7.72,3.87-14,14-14,22.67V470.13c0,8.64,6.28,12.54,14,8.67L531.08,247.86c7.74-3.88,20.27-3.88,28,0L817.28,478.8c7.74,3.87,14,0,14-8.67V256.52c0-16.24-17.64-26.21-28.38-35.52C788.68,208.66,597.76,37.48,559.09,2.9c-7.74-3.87-20.27-3.87-28,0Z"/></clipPath></defs><g id="Layer_2" data-name="Layer 2"><g id="Capa_1" data-name="Capa 1"><path class="cls-2" d="M0,235.1H100.24v50.12H0Z"/><path class="cls-3" d="M12.68,270.26a6.18,6.18,0,0,1,8.06,0l3.26,2.8a14.41,14.41,0,0,0,18.83,0l3.26-2.8a6.19,6.19,0,0,1,8.06,0l3.26,2.8a14.42,14.42,0,0,0,18.84,0l3.26-2.79a6.18,6.18,0,0,1,8.06,0l3.26,2.8a14.45,14.45,0,0,0,9.41,3.5v-8.29a6.24,6.24,0,0,1-4-1.5L93,264a14.41,14.41,0,0,0-18.83,0l-3.26,2.8a6.19,6.19,0,0,1-8.06,0L59.54,264a14.41,14.41,0,0,0-18.83,0l-3.26,2.8a6.18,6.18,0,0,1-8.06,0L26.12,264a14.41,14.41,0,0,0-18.83,0L4,266.77a6.19,6.19,0,0,1-4,1.5v8.29a14.49,14.49,0,0,0,9.42-3.5Z"/><path class="cls-3" d="M12.68,287a6.16,6.16,0,0,1,8.06,0L24,289.76a14.38,14.38,0,0,0,18.83,0L46.09,287a6.16,6.16,0,0,1,8.06,0l3.26,2.79a14.4,14.4,0,0,0,18.84,0L79.51,287a6.16,6.16,0,0,1,8.06,0l3.26,2.79a14.4,14.4,0,0,0,9.41,3.51V285a6.19,6.19,0,0,1-4-1.5L93,280.68a14.41,14.41,0,0,0-18.83,0l-3.26,2.79a6.16,6.16,0,0,1-8.06,0l-3.26-2.79a14.41,14.41,0,0,0-18.83,0l-3.26,2.79a6.16,6.16,0,0,1-8.06,0l-3.27-2.79a14.41,14.41,0,0,0-18.83,0L4,283.47A6.19,6.19,0,0,1,0,285v8.3a14.45,14.45,0,0,0,9.42-3.51Z"/><path class="cls-3" d="M12.68,236.85a6.16,6.16,0,0,1,8.06,0L24,239.64a14.41,14.41,0,0,0,18.83,0l3.26-2.79a6.16,6.16,0,0,1,8.06,0l3.26,2.79a14.42,14.42,0,0,0,18.84,0l3.26-2.79a6.16,6.16,0,0,1,8.06,0l3.26,2.79a14.4,14.4,0,0,0,9.41,3.51V235.1H0v8.05a14.45,14.45,0,0,0,9.42-3.51Z"/><path class="cls-3" d="M12.68,253.56a6.16,6.16,0,0,1,8.06,0L24,256.35a14.41,14.41,0,0,0,18.83,0l3.26-2.79a6.16,6.16,0,0,1,8.06,0l3.26,2.79a14.42,14.42,0,0,0,18.84,0l3.26-2.79a6.16,6.16,0,0,1,8.06,0l3.26,2.79a14.39,14.39,0,0,0,9.41,3.5v-8.29a6.19,6.19,0,0,1-4-1.5L93,247.27a14.39,14.39,0,0,0-18.83,0l-3.26,2.79a6.16,6.16,0,0,1-8.06,0l-3.26-2.79a14.39,14.39,0,0,0-18.83,0l-3.26,2.79a6.16,6.16,0,0,1-8.06,0l-3.27-2.79a14.38,14.38,0,0,0-18.83,0L4,250.06a6.19,6.19,0,0,1-4,1.5v8.29a14.44,14.44,0,0,0,9.42-3.5Z"/><rect class="cls-3" x="200.48" y="235.1" width="50.12" height="50.12"/><polygon class="cls-4" points="250.6 260.16 225.54 260.16 225.54 235.1 250.6 260.16"/><polygon class="cls-4" points="225.54 260.16 200.48 260.16 200.48 235.1 225.54 260.16"/><polygon class="cls-4" points="250.6 285.22 225.54 285.22 225.54 260.16 250.6 285.22"/><polygon class="cls-4" points="225.54 285.22 200.48 285.22 200.48 260.16 225.54 285.22"/><rect class="cls-3" x="150.36" y="235.1" width="50.12" height="50.12"/><polygon class="cls-4" points="200.48 260.16 175.42 260.16 175.42 235.1 200.48 260.16"/><polygon class="cls-4" points="175.42 260.16 150.36 260.16 150.36 235.1 175.42 260.16"/><polygon class="cls-4" points="200.48 285.22 175.42 285.22 175.42 260.16 200.48 285.22"/><polygon class="cls-4" points="175.42 285.22 150.36 285.22 150.36 260.16 175.42 285.22"/><rect class="cls-2" x="150.36" y="285.22" width="100.24" height="100.24"/><rect class="cls-5" x="165.04" y="299.9" width="70.88" height="70.88" transform="translate(-178.4 239.98) rotate(-45)"/><rect class="cls-6" x="150.36" y="435.58" width="50.12" height="50.12"/><rect class="cls-5" x="187.95" y="460.64" width="12.53" height="25.06"/><rect class="cls-5" x="162.89" y="460.64" width="12.53" height="25.06"/><rect class="cls-5" x="175.42" y="435.58" width="12.53" height="25.06"/><rect class="cls-5" x="150.36" y="435.58" width="12.53" height="25.06"/><rect class="cls-4" x="50.12" y="285.22" width="50.12" height="50.12"/><rect class="cls-6" x="87.71" y="285.22" width="12.53" height="25.06"/><rect class="cls-6" x="62.65" y="285.22" width="12.53" height="25.06"/><rect class="cls-6" x="75.18" y="310.28" width="12.53" height="25.06"/><rect class="cls-6" x="50.12" y="310.28" width="12.53" height="25.06"/><rect class="cls-3" x="100.24" y="285.22" width="50.12" height="50.12"/><path class="cls-4" d="M133.66,310.28H125.3v25.06h8.36Zm16.7,0H142v25.06h8.35ZM117,335.34V310.28H108.6v25.06Z"/><path class="cls-4" d="M125.3,285.22H117v25.06h8.35Zm16.71,0h-8.35v25.06H142ZM108.6,310.28V285.22h-8.36v25.06Z"/><rect class="cls-4" x="100.24" y="335.34" width="50.12" height="50.12"/><path d="M117,385.46h8.35V352.05H117Zm-16.71,0h8.36V352.05h-8.36Zm41.77,0V352.05h-8.35v33.41Z"/><path d="M125.3,352.05h8.36V335.34H125.3Zm-16.7,0H117V335.34H108.6Zm41.76,0V335.34H142v16.71Z"/><rect class="cls-6" x="200.48" y="385.46" width="50.12" height="50.12"/><path d="M250.6,410.52V385.46H225.54A25.06,25.06,0,0,1,250.6,410.52Z"/><path d="M225.54,435.58H250.6V410.52A25.06,25.06,0,0,1,225.54,435.58Z"/><path d="M225.54,385.46H200.48v25.06A25.06,25.06,0,0,1,225.54,385.46Z"/><path d="M225.54,435.58a25.06,25.06,0,0,1-25.06-25.06v25.06Z"/><rect class="cls-4" y="435.58" width="50.12" height="50.12"/><path class="cls-5" d="M25.06,485.71A25.07,25.07,0,1,0,0,460.64,25.06,25.06,0,0,0,25.06,485.71Zm0-37.6a12.54,12.54,0,1,1-12.53,12.53A12.53,12.53,0,0,1,25.06,448.11Z"/><rect class="cls-3" y="385.46" width="50.12" height="50.12"/><path class="cls-5" d="M50.12,435.58V385.46H0v50.12ZM12.94,398.4H37.18v24.25H12.94Z"/><rect class="cls-3" x="200.48" y="435.58" width="50.12" height="50.12"/><polygon points="200.48 466.91 219.28 466.91 219.28 485.7 231.81 485.7 231.81 466.91 250.6 466.91 250.6 454.38 231.81 454.38 231.81 435.58 219.28 435.58 219.28 454.38 200.48 454.38 200.48 466.91"/><rect y="285.22" width="50.12" height="50.12"/><polygon class="cls-5" points="0 335.34 8.86 335.34 25.06 319.14 41.26 335.34 50.12 335.34 50.12 326.48 33.92 310.28 50.12 294.08 50.12 285.22 41.26 285.22 25.06 301.42 8.86 285.22 0 285.22 0 294.08 16.2 310.28 0 326.48 0 335.34"/><rect class="cls-5" x="150.36" y="385.46" width="50.12" height="50.12"/><polygon points="200.48 426.72 200.48 394.32 184.28 410.52 200.48 426.72"/><polygon points="159.22 435.58 191.62 435.58 175.42 419.38 159.22 435.58"/><polygon points="150.36 394.32 150.36 426.72 166.56 410.52 150.36 394.32"/><polygon points="191.62 385.46 159.22 385.46 175.42 401.66 191.62 385.46"/><rect class="cls-3" x="50.12" y="335.34" width="50.12" height="50.12"/><polygon class="cls-5" points="50.12 368.76 66.83 368.76 66.83 385.46 83.53 385.46 83.53 368.76 100.24 368.76 100.24 352.05 83.53 352.05 83.53 335.34 66.83 335.34 66.83 352.05 50.12 352.05 50.12 368.76"/><rect x="100.24" y="235.1" width="50.12" height="50.12"/><rect class="cls-5" x="133.66" y="235.1" width="16.71" height="16.71"/><rect class="cls-5" x="133.66" y="268.51" width="16.71" height="16.71"/><rect class="cls-5" x="100.24" y="235.1" width="16.71" height="16.71"/><rect class="cls-5" x="100.24" y="268.51" width="16.71" height="16.71"/><rect class="cls-3" x="50.12" y="385.46" width="100.24" height="75.18"/><rect class="cls-4" x="50.12" y="420.24" width="100.24" height="10.64"/><rect class="cls-4" x="50.12" y="400.19" width="100.24" height="10.64"/><rect class="cls-4" x="50.12" y="385.46" width="100.24" height="5.32"/><rect class="cls-4" x="50.12" y="440.29" width="100.24" height="10.64"/><rect class="cls-4" y="335.34" width="50.12" height="50.12"/><path class="cls-3" d="M50.12,360.44,25,335.34H17.5L50.12,368Zm0-25.1H45.85l4.27,4.27Zm0,39.27L10.85,335.34H3.32l46.8,46.8Zm0-28.35L39.2,335.34H31.68l18.44,18.45ZM4.27,385.46,0,381.2v4.26Zm14.17,0L0,367v7.53l10.92,10.91Zm28.36,0L0,338.67v7.52l39.27,39.27Zm-14.18,0L0,352.84v7.53l25.09,25.09Z"/><g class="cls-7"><rect class="cls-8" x="253.66" y="286.05" width="50.68" height="50.69"/><ellipse class="cls-9" cx="278.99" cy="311.39" rx="25.34" ry="25.35"/><rect class="cls-9" x="456.36" y="235.36" width="50.68" height="50.69"/><path class="cls-10" d="M456.36,235.36a25.34,25.34,0,0,0,50.68,0Z"/><rect class="cls-2" x="355.01" y="438.12" width="50.68" height="50.69"/><path class="cls-10" d="M355,438.12a50.68,50.68,0,0,0,50.68,50.69V438.12Z"/><rect class="cls-2" x="253.66" y="438.12" width="50.68" height="50.69"/><path class="cls-9" d="M253.66,438.12a50.67,50.67,0,0,0,50.67,50.69V438.12Z"/><rect class="cls-6" x="253.66" y="387.43" width="50.68" height="50.69"/><path class="cls-8" d="M253.66,387.43a50.67,50.67,0,0,0,50.67,50.69V387.43Z"/><rect class="cls-9" x="253.66" y="336.74" width="50.68" height="50.69"/><path class="cls-10" d="M253.66,336.74a50.67,50.67,0,0,0,50.67,50.69V336.74Z"/><rect class="cls-6" x="253.66" y="235.36" width="50.68" height="50.69"/><path class="cls-10" d="M253.66,286.05h50.67a25.34,25.34,0,1,0-50.67,0Z"/><path class="cls-10" d="M279,260.7a25.34,25.34,0,0,0,25.34-25.34H253.66A25.34,25.34,0,0,0,279,260.7Z"/><rect class="cls-6" x="304.33" y="286.05" width="50.68" height="50.69"/><path class="cls-10" d="M355,311.39a25.35,25.35,0,0,0-25.34-25.34H304.33v25.34a25.35,25.35,0,0,0,25.34,25.35H355Z"/><rect class="cls-8" x="304.33" y="235.36" width="50.68" height="50.69"/><circle class="cls-9" cx="342.34" cy="273.38" r="12.67"/><circle class="cls-9" cx="317" cy="273.38" r="12.67"/><circle class="cls-9" cx="342.34" cy="248.03" r="12.67"/><circle class="cls-9" cx="317" cy="248.03" r="12.67"/><rect class="cls-2" x="304.33" y="336.74" width="101.35" height="101.38"/><rect class="cls-9" x="405.69" y="387.43" width="50.68" height="50.69"/><path class="cls-10" d="M431,438.12h25.34V412.78A25.33,25.33,0,0,1,431,438.12Z"/><path class="cls-10" d="M456.36,412.78V387.43H431A25.34,25.34,0,0,1,456.36,412.78Z"/><path class="cls-10" d="M418.35,412.78a12.67,12.67,0,0,0-12.66-12.68v25.35A12.66,12.66,0,0,0,418.35,412.78Z"/><path class="cls-10" d="M431,412.78a25.33,25.33,0,0,1-25.33,25.34H431V425.45a12.68,12.68,0,0,0,0-25.35V387.43H405.69A25.34,25.34,0,0,1,431,412.78Z"/><path class="cls-8" d="M355,286.05v3.81h97.55v97.57h3.8V286.05Zm0,9.76v3.8H442.8v87.82h3.81V295.81H355Zm0,9.75v3.81h78v78.06h3.8V305.56H355Zm0,9.76v3.81h68.28v68.3h3.81V315.32H355Zm0,9.76v3.81h58.53v58.54h3.8V325.08H355Zm0,9.76v3.8h48.77v48.79h3.81V334.84H355Zm0,9.75v3.81h39v39h3.8V344.59H355Z"/><rect class="cls-9" x="405.69" y="438.12" width="50.68" height="50.69"/><polygon class="cls-10" points="405.69 488.81 456.36 488.81 431.02 463.47 456.36 438.12 405.69 438.12 431.02 463.47 405.69 488.81"/><rect class="cls-8" x="456.36" y="286.05" width="50.68" height="50.69"/><path class="cls-6" d="M473.25,303v8.44H507V303Zm0-16.9v8.45H507v-8.45ZM507,319.84H473.25v8.45H507Z"/><path class="cls-6" d="M456.36,311.39v8.45h16.89v-8.45Zm0-16.89V303h16.89V294.5Zm16.89,33.79H456.36v8.45h16.89Z"/><rect class="cls-9" x="456.36" y="336.74" width="50.68" height="50.69"/><rect class="cls-2" x="456.36" y="364.46" width="50.68" height="5.38"/><rect class="cls-2" x="456.36" y="374.6" width="50.68" height="5.38"/><rect class="cls-2" x="456.36" y="384.74" width="50.68" height="2.69"/><rect class="cls-2" x="456.36" y="354.33" width="50.68" height="5.38"/><rect class="cls-2" x="456.36" y="336.74" width="50.68" height="2.69"/><rect class="cls-2" x="456.36" y="344.19" width="50.68" height="5.38"/><rect class="cls-8" x="456.36" y="438.12" width="50.68" height="50.69"/><polygon class="cls-9" points="456.36 465.85 456.36 471.23 489.46 471.23 489.46 438.12 484.08 438.12 484.08 465.85 456.36 465.85"/><polygon class="cls-9" points="456.36 486.12 456.36 488.81 507.04 488.81 507.04 438.12 504.35 438.12 504.35 486.12 456.36 486.12"/><polygon class="cls-9" points="456.36 475.99 456.36 481.37 499.59 481.37 499.59 438.12 494.21 438.12 494.21 475.99 456.36 475.99"/><rect class="cls-9" x="456.36" y="438.12" width="2.69" height="2.69"/><polygon class="cls-9" points="456.36 455.71 456.36 461.09 479.32 461.09 479.32 438.12 473.94 438.12 473.94 455.71 456.36 455.71"/><polygon class="cls-9" points="456.36 445.57 456.36 450.95 469.19 450.95 469.19 438.12 463.81 438.12 463.81 445.57 456.36 445.57"/><rect class="cls-6" x="456.36" y="387.43" width="50.68" height="50.69"/><polygon class="cls-10" points="479.32 387.43 473.94 387.43 473.94 420.54 507.04 420.54 507.04 415.15 479.32 415.15 479.32 387.43"/><polygon class="cls-10" points="459.05 387.43 456.36 387.43 456.36 438.12 507.04 438.12 507.04 435.43 459.05 435.43 459.05 387.43"/><polygon class="cls-10" points="469.19 387.43 463.81 387.43 463.81 430.68 507.04 430.68 507.04 425.29 469.19 425.29 469.19 387.43"/><rect class="cls-10" x="504.35" y="387.43" width="2.69" height="2.69"/><polygon class="cls-10" points="489.46 387.43 484.08 387.43 484.08 410.4 507.04 410.4 507.04 405.02 489.46 405.02 489.46 387.43"/><polygon class="cls-10" points="499.59 387.43 494.21 387.43 494.21 400.26 507.04 400.26 507.04 394.88 499.59 394.88 499.59 387.43"/><path class="cls-5" d="M304.33,387.43A50.68,50.68,0,1,0,355,336.74,50.68,50.68,0,0,0,304.33,387.43Zm76,0A25.34,25.34,0,1,1,355,362.09,25.35,25.35,0,0,1,380.35,387.43Z"/><rect class="cls-6" x="355.01" y="235.36" width="50.68" height="50.69"/><polygon class="cls-8" points="380.35 235.36 355.01 260.7 380.35 286.05 380.35 260.7 405.69 286.05 405.69 235.36 380.35 260.7 380.35 235.36"/><rect class="cls-10" x="405.69" y="235.36" width="50.68" height="50.69"/><polygon class="cls-2" points="431.02 235.36 405.69 260.7 431.02 286.05 431.02 260.7 456.36 286.05 456.36 235.36 431.02 260.7 431.02 235.36"/><rect class="cls-8" x="253.66" y="37.93" width="50.68" height="50.69"/><ellipse class="cls-9" cx="278.99" cy="63.27" rx="25.34" ry="25.35"/><rect class="cls-9" x="456.36" y="-12.76" width="50.68" height="50.69"/><path class="cls-10" d="M456.36-12.76A25.34,25.34,0,0,0,481.7,12.58,25.34,25.34,0,0,0,507-12.76Z"/><rect class="cls-2" x="355.01" y="190" width="50.68" height="50.69"/><path class="cls-10" d="M355,190a50.68,50.68,0,0,0,50.68,50.69V190Z"/><rect class="cls-2" x="253.66" y="190" width="50.68" height="50.69"/><path class="cls-9" d="M253.66,190a50.67,50.67,0,0,0,50.67,50.69V190Z"/><rect class="cls-6" x="253.66" y="139.31" width="50.68" height="50.69"/><path class="cls-8" d="M253.66,139.31A50.67,50.67,0,0,0,304.33,190V139.31Z"/><rect class="cls-9" x="253.66" y="88.62" width="50.68" height="50.69"/><path class="cls-10" d="M253.66,88.62a50.67,50.67,0,0,0,50.67,50.69V88.62Z"/><rect class="cls-6" x="253.66" y="-12.76" width="50.68" height="50.69"/><path class="cls-10" d="M253.66,37.93h50.67a25.34,25.34,0,1,0-50.67,0Z"/><path class="cls-10" d="M279,12.58a25.33,25.33,0,0,0,25.34-25.34H253.66A25.33,25.33,0,0,0,279,12.58Z"/><rect class="cls-6" x="304.33" y="37.93" width="50.68" height="50.69"/><path class="cls-10" d="M355,63.27a25.35,25.35,0,0,0-25.34-25.34H304.33V63.27a25.35,25.35,0,0,0,25.34,25.35H355Z"/><rect class="cls-8" x="304.33" y="-12.76" width="50.68" height="50.69"/><circle class="cls-9" cx="342.34" cy="25.26" r="12.67"/><circle class="cls-9" cx="317" cy="25.26" r="12.67"/><circle class="cls-9" cx="342.34" cy="-0.09" r="12.67"/><circle class="cls-9" cx="317" cy="-0.09" r="12.67"/><rect class="cls-2" x="304.33" y="88.62" width="101.35" height="101.38"/><rect class="cls-9" x="405.69" y="139.31" width="50.68" height="50.69"/><path class="cls-10" d="M431,190h25.34V164.66A25.33,25.33,0,0,1,431,190Z"/><path class="cls-10" d="M456.36,164.66V139.31H431A25.34,25.34,0,0,1,456.36,164.66Z"/><path class="cls-10" d="M418.35,164.66A12.67,12.67,0,0,0,405.69,152v25.35A12.66,12.66,0,0,0,418.35,164.66Z"/><path class="cls-10" d="M431,164.66A25.33,25.33,0,0,1,405.69,190H431V177.33A12.68,12.68,0,0,0,431,152V139.31H405.69A25.34,25.34,0,0,1,431,164.66Z"/><path class="cls-8" d="M355,37.93v3.81h97.55v97.57h3.8V37.93Zm0,9.76v3.8H442.8v87.82h3.81V47.69H355Zm0,9.75v3.81h78v78.06h3.8V57.44H355Zm0,9.76V71h68.28v68.3h3.81V67.2H355ZM355,77v3.81h58.53v58.54h3.8V77H355Zm0,9.76v3.8h48.77v48.79h3.81V86.72H355Zm0,9.75v3.81h39v39h3.8V96.47H355Z"/><rect class="cls-9" x="405.69" y="190" width="50.68" height="50.69"/><polygon class="cls-10" points="405.69 240.69 456.36 240.69 431.02 215.35 456.36 190 405.69 190 431.02 215.35 405.69 240.69"/><rect class="cls-8" x="456.36" y="37.93" width="50.68" height="50.69"/><path class="cls-6" d="M473.25,54.83v8.44H507V54.83Zm0-16.9v8.45H507V37.93ZM507,71.72H473.25v8.45H507Z"/><path class="cls-6" d="M456.36,63.27v8.45h16.89V63.27Zm0-16.89v8.45h16.89V46.38Zm16.89,33.79H456.36v8.45h16.89Z"/><rect class="cls-9" x="456.36" y="88.62" width="50.68" height="50.69"/><rect class="cls-2" x="456.36" y="116.34" width="50.68" height="5.38"/><rect class="cls-2" x="456.36" y="126.48" width="50.68" height="5.38"/><rect class="cls-2" x="456.36" y="136.62" width="50.68" height="2.69"/><rect class="cls-2" x="456.36" y="106.21" width="50.68" height="5.38"/><rect class="cls-2" x="456.36" y="88.62" width="50.68" height="2.69"/><rect class="cls-2" x="456.36" y="96.07" width="50.68" height="5.38"/><rect class="cls-8" x="456.36" y="190" width="50.68" height="50.69"/><polygon class="cls-9" points="456.36 217.73 456.36 223.11 489.46 223.11 489.46 190 484.08 190 484.08 217.73 456.36 217.73"/><polygon class="cls-9" points="456.36 238 456.36 240.69 507.04 240.69 507.04 190 504.35 190 504.35 238 456.36 238"/><polygon class="cls-9" points="456.36 227.87 456.36 233.25 499.59 233.25 499.59 190 494.21 190 494.21 227.87 456.36 227.87"/><rect class="cls-9" x="456.36" y="190" width="2.69" height="2.69"/><polygon class="cls-9" points="456.36 207.59 456.36 212.97 479.32 212.97 479.32 190 473.94 190 473.94 207.59 456.36 207.59"/><polygon class="cls-9" points="456.36 197.45 456.36 202.83 469.19 202.83 469.19 190 463.81 190 463.81 197.45 456.36 197.45"/><rect class="cls-6" x="456.36" y="139.31" width="50.68" height="50.69"/><polygon class="cls-10" points="479.32 139.31 473.94 139.31 473.94 172.42 507.04 172.42 507.04 167.04 479.32 167.04 479.32 139.31"/><polygon class="cls-10" points="459.05 139.31 456.36 139.31 456.36 190 507.04 190 507.04 187.31 459.05 187.31 459.05 139.31"/><polygon class="cls-10" points="469.19 139.31 463.81 139.31 463.81 182.56 507.04 182.56 507.04 177.17 469.19 177.17 469.19 139.31"/><rect class="cls-10" x="504.35" y="139.31" width="2.69" height="2.69"/><polygon class="cls-10" points="489.46 139.31 484.08 139.31 484.08 162.28 507.04 162.28 507.04 156.9 489.46 156.9 489.46 139.31"/><polygon class="cls-10" points="499.59 139.31 494.21 139.31 494.21 152.14 507.04 152.14 507.04 146.76 499.59 146.76 499.59 139.31"/><path class="cls-5" d="M304.33,139.31A50.68,50.68,0,1,0,355,88.62,50.68,50.68,0,0,0,304.33,139.31Zm76,0A25.34,25.34,0,1,1,355,114,25.35,25.35,0,0,1,380.35,139.31Z"/><rect class="cls-6" x="355.01" y="-12.76" width="50.68" height="50.69"/><polygon class="cls-8" points="380.35 -12.76 355.01 12.58 380.35 37.93 380.35 12.58 405.69 37.93 405.69 -12.76 380.35 12.58 380.35 -12.76"/><rect class="cls-10" x="405.69" y="-12.76" width="50.68" height="50.69"/><polygon class="cls-2" points="431.02 -12.76 405.69 12.58 431.02 37.93 431.02 12.58 456.36 37.93 456.36 -12.76 431.02 12.58 431.02 -12.76"/><rect class="cls-8" x="509.32" y="37.93" width="50.68" height="50.69"/><ellipse class="cls-9" cx="534.66" cy="63.27" rx="25.34" ry="25.35"/><rect class="cls-9" x="712.03" y="-12.76" width="50.68" height="50.69"/><path class="cls-10" d="M712-12.76a25.33,25.33,0,0,0,25.34,25.34,25.34,25.34,0,0,0,25.34-25.34Z"/><rect class="cls-2" x="610.68" y="190" width="50.68" height="50.69"/><path class="cls-10" d="M610.68,190a50.68,50.68,0,0,0,50.67,50.69V190Z"/><rect class="cls-2" x="509.32" y="190" width="50.68" height="50.69"/><path class="cls-9" d="M509.32,190A50.68,50.68,0,0,0,560,240.69V190Z"/><rect class="cls-6" x="509.32" y="139.31" width="50.68" height="50.69"/><path class="cls-8" d="M509.32,139.31A50.68,50.68,0,0,0,560,190V139.31Z"/><rect class="cls-9" x="509.32" y="88.62" width="50.68" height="50.69"/><path class="cls-10" d="M509.32,88.62A50.68,50.68,0,0,0,560,139.31V88.62Z"/><rect class="cls-6" x="509.32" y="-12.76" width="50.68" height="50.69"/><path class="cls-10" d="M509.32,37.93H560a25.34,25.34,0,1,0-50.68,0Z"/><path class="cls-10" d="M534.66,12.58A25.33,25.33,0,0,0,560-12.76H509.32A25.34,25.34,0,0,0,534.66,12.58Z"/><rect class="cls-6" x="560" y="37.93" width="50.68" height="50.69"/><path class="cls-10" d="M610.68,63.27a25.35,25.35,0,0,0-25.34-25.34H560V63.27a25.34,25.34,0,0,0,25.34,25.35h25.34Z"/><rect class="cls-8" x="560" y="-12.76" width="50.68" height="50.69"/><circle class="cls-9" cx="598.01" cy="25.26" r="12.67"/><circle class="cls-9" cx="572.67" cy="25.26" r="12.67"/><circle class="cls-9" cx="598.01" cy="-0.09" r="12.67"/><circle class="cls-9" cx="572.67" cy="-0.09" r="12.67"/><rect class="cls-2" x="560" y="88.62" width="101.35" height="101.38"/><rect class="cls-9" x="661.35" y="139.31" width="50.68" height="50.69"/><path class="cls-10" d="M686.69,190H712V164.66A25.33,25.33,0,0,1,686.69,190Z"/><path class="cls-10" d="M712,164.66V139.31H686.69A25.34,25.34,0,0,1,712,164.66Z"/><path class="cls-10" d="M674,164.66A12.68,12.68,0,0,0,661.35,152v25.35A12.67,12.67,0,0,0,674,164.66Z"/><path class="cls-10" d="M686.69,164.66A25.33,25.33,0,0,1,661.35,190h25.34V177.33a12.68,12.68,0,0,0,0-25.35V139.31H661.35A25.34,25.34,0,0,1,686.69,164.66Z"/><path class="cls-8" d="M610.68,37.93v3.81h97.54v97.57H712V37.93Zm0,9.76v3.8h87.79v87.82h3.8V47.69H610.68Zm0,9.75v3.81h78v78.06h3.81V57.44H610.68Zm0,9.76V71H679v68.3h3.81V67.2H610.68Zm0,9.76v3.81H669.2v58.54H673V77H610.68Zm0,9.76v3.8h48.77v48.79h3.81V86.72H610.68Zm0,9.75v3.81h39v39h3.8V96.47H610.68Z"/><rect class="cls-9" x="661.35" y="190" width="50.68" height="50.69"/><polygon class="cls-10" points="661.35 240.69 712.03 240.69 686.69 215.35 712.03 190 661.35 190 686.69 215.35 661.35 240.69"/><rect class="cls-8" x="712.03" y="37.93" width="50.68" height="50.69"/><path class="cls-6" d="M728.92,54.83v8.44h33.79V54.83Zm0-16.9v8.45h33.79V37.93Zm33.79,33.79H728.92v8.45h33.79Z"/><path class="cls-6" d="M712,63.27v8.45h16.89V63.27Zm0-16.89v8.45h16.89V46.38Zm16.89,33.79H712v8.45h16.89Z"/><rect class="cls-9" x="712.03" y="88.62" width="50.68" height="50.69"/><rect class="cls-2" x="712.03" y="116.34" width="50.68" height="5.38"/><rect class="cls-2" x="712.03" y="126.48" width="50.68" height="5.38"/><rect class="cls-2" x="712.03" y="136.62" width="50.68" height="2.69"/><rect class="cls-2" x="712.03" y="106.21" width="50.68" height="5.38"/><rect class="cls-2" x="712.03" y="88.62" width="50.68" height="2.69"/><rect class="cls-2" x="712.03" y="96.07" width="50.68" height="5.38"/><rect class="cls-8" x="712.03" y="190" width="50.68" height="50.69"/><polygon class="cls-9" points="712.03 217.73 712.03 223.11 745.13 223.11 745.13 190 739.75 190 739.75 217.73 712.03 217.73"/><polygon class="cls-9" points="712.03 238 712.03 240.69 762.71 240.69 762.71 190 760.01 190 760.01 238 712.03 238"/><polygon class="cls-9" points="712.03 227.87 712.03 233.25 755.26 233.25 755.26 190 749.88 190 749.88 227.87 712.03 227.87"/><rect class="cls-9" x="712.03" y="190" width="2.69" height="2.69"/><polygon class="cls-9" points="712.03 207.59 712.03 212.97 734.99 212.97 734.99 190 729.61 190 729.61 207.59 712.03 207.59"/><polygon class="cls-9" points="712.03 197.45 712.03 202.83 724.86 202.83 724.86 190 719.47 190 719.47 197.45 712.03 197.45"/><rect class="cls-6" x="712.03" y="139.31" width="50.68" height="50.69"/><polygon class="cls-10" points="734.99 139.31 729.61 139.31 729.61 172.42 762.71 172.42 762.71 167.04 734.99 167.04 734.99 139.31"/><polygon class="cls-10" points="714.72 139.31 712.03 139.31 712.03 190 762.71 190 762.71 187.31 714.72 187.31 714.72 139.31"/><polygon class="cls-10" points="724.86 139.31 719.47 139.31 719.47 182.56 762.71 182.56 762.71 177.17 724.86 177.17 724.86 139.31"/><rect class="cls-10" x="760.02" y="139.31" width="2.69" height="2.69"/><polygon class="cls-10" points="745.13 139.31 739.75 139.31 739.75 162.28 762.71 162.28 762.71 156.9 745.13 156.9 745.13 139.31"/><polygon class="cls-10" points="755.26 139.31 749.88 139.31 749.88 152.14 762.71 152.14 762.71 146.76 755.26 146.76 755.26 139.31"/><path class="cls-5" d="M560,139.31a50.68,50.68,0,1,0,50.68-50.69A50.68,50.68,0,0,0,560,139.31Zm76,0A25.34,25.34,0,1,1,610.68,114,25.35,25.35,0,0,1,636,139.31Z"/><rect class="cls-6" x="610.68" y="-12.76" width="50.68" height="50.69"/><polygon class="cls-8" points="636.01 -12.76 610.68 12.58 636.01 37.93 636.01 12.58 661.35 37.93 661.35 -12.76 636.01 12.58 636.01 -12.76"/><rect class="cls-10" x="661.35" y="-12.76" width="50.68" height="50.69"/><polygon class="cls-2" points="686.69 -12.76 661.35 12.58 686.69 37.93 686.69 12.58 712.03 37.93 712.03 -12.76 686.69 12.58 686.69 -12.76"/><rect class="cls-8" x="762.71" y="286.05" width="50.68" height="50.69"/><ellipse class="cls-9" cx="788.04" cy="311.39" rx="25.34" ry="25.35"/><rect class="cls-2" x="762.71" y="438.12" width="50.68" height="50.69"/><path class="cls-9" d="M762.71,438.12a50.67,50.67,0,0,0,50.67,50.69V438.12Z"/><rect class="cls-6" x="762.71" y="387.43" width="50.68" height="50.69"/><path class="cls-8" d="M762.71,387.43a50.67,50.67,0,0,0,50.67,50.69V387.43Z"/><rect class="cls-9" x="762.71" y="336.74" width="50.68" height="50.69"/><path class="cls-10" d="M762.71,336.74a50.67,50.67,0,0,0,50.67,50.69V336.74Z"/><rect class="cls-6" x="762.71" y="235.36" width="50.68" height="50.69"/><path class="cls-10" d="M762.71,286.05h50.67a25.34,25.34,0,1,0-50.67,0Z"/><path class="cls-10" d="M788,260.7a25.34,25.34,0,0,0,25.34-25.34H762.71A25.34,25.34,0,0,0,788,260.7Z"/><rect class="cls-6" x="813.38" y="286.05" width="50.68" height="50.69"/><path class="cls-10" d="M864.06,311.39a25.35,25.35,0,0,0-25.34-25.34H813.38v25.34a25.35,25.35,0,0,0,25.34,25.35h25.34Z"/><rect class="cls-8" x="813.38" y="235.36" width="50.68" height="50.69"/><circle class="cls-9" cx="826.05" cy="273.38" r="12.67"/><circle class="cls-9" cx="826.05" cy="248.03" r="12.67"/><rect class="cls-2" x="813.38" y="336.74" width="101.35" height="101.38"/><path class="cls-5" d="M813.38,387.43a50.68,50.68,0,1,0,50.68-50.69A50.68,50.68,0,0,0,813.38,387.43Zm76,0a25.34,25.34,0,1,1-25.34-25.34A25.35,25.35,0,0,1,889.4,387.43Z"/><rect class="cls-8" x="762.71" y="37.93" width="50.68" height="50.69"/><ellipse class="cls-9" cx="788.04" cy="63.27" rx="25.34" ry="25.35"/><rect class="cls-2" x="762.71" y="190" width="50.68" height="50.69"/><path class="cls-9" d="M762.71,190a50.67,50.67,0,0,0,50.67,50.69V190Z"/><rect class="cls-6" x="762.71" y="139.31" width="50.68" height="50.69"/><path class="cls-8" d="M762.71,139.31A50.67,50.67,0,0,0,813.38,190V139.31Z"/><rect class="cls-9" x="762.71" y="88.62" width="50.68" height="50.69"/><path class="cls-10" d="M762.71,88.62a50.67,50.67,0,0,0,50.67,50.69V88.62Z"/><rect class="cls-6" x="762.71" y="-12.76" width="50.68" height="50.69"/><path class="cls-10" d="M762.71,37.93h50.67a25.34,25.34,0,1,0-50.67,0Z"/><path class="cls-10" d="M788,12.58a25.33,25.33,0,0,0,25.34-25.34H762.71A25.33,25.33,0,0,0,788,12.58Z"/><rect class="cls-6" x="813.38" y="37.93" width="50.68" height="50.69"/><path class="cls-10" d="M864.06,63.27a25.35,25.35,0,0,0-25.34-25.34H813.38V63.27a25.35,25.35,0,0,0,25.34,25.35h25.34Z"/><rect class="cls-8" x="813.38" y="-12.76" width="50.68" height="50.69"/><circle class="cls-9" cx="826.05" cy="25.26" r="12.67"/><circle class="cls-9" cx="826.05" cy="-0.09" r="12.67"/><rect class="cls-2" x="813.38" y="88.62" width="101.35" height="101.38"/><path class="cls-5" d="M813.38,139.31a50.68,50.68,0,1,0,50.68-50.69A50.68,50.68,0,0,0,813.38,139.31Zm76,0A25.34,25.34,0,1,1,864.06,114,25.35,25.35,0,0,1,889.4,139.31Z"/><path class="cls-2" d="M512.1,241.41H612.34v50.12H512.1Z"/><path class="cls-3" d="M524.78,276.57a6.19,6.19,0,0,1,8.06,0l3.26,2.8a14.41,14.41,0,0,0,18.83,0l3.26-2.79a6.16,6.16,0,0,1,8.06,0l3.26,2.79a14.42,14.42,0,0,0,18.84,0l3.26-2.79a6.16,6.16,0,0,1,8.06,0l3.26,2.79a14.45,14.45,0,0,0,9.41,3.5v-8.29a6.19,6.19,0,0,1-4-1.5l-3.26-2.8a14.39,14.39,0,0,0-18.83,0L583,273.08a6.16,6.16,0,0,1-8.06,0l-3.26-2.8a14.41,14.41,0,0,0-18.83,0l-3.26,2.8a6.16,6.16,0,0,1-8.06,0l-3.26-2.8a14.42,14.42,0,0,0-18.84,0l-3.26,2.8a6.19,6.19,0,0,1-4,1.5v8.29a14.47,14.47,0,0,0,9.42-3.5Z"/><path class="cls-3" d="M524.78,293.28a6.16,6.16,0,0,1,8.06,0l3.26,2.79a14.38,14.38,0,0,0,18.83,0l3.26-2.79a6.16,6.16,0,0,1,8.06,0l3.26,2.79a14.4,14.4,0,0,0,18.84,0l3.26-2.79a6.16,6.16,0,0,1,8.06,0l3.26,2.79a14.4,14.4,0,0,0,9.41,3.51v-8.3a6.19,6.19,0,0,1-4-1.5L605.05,287a14.41,14.41,0,0,0-18.83,0L583,289.78a6.16,6.16,0,0,1-8.06,0L571.64,287a14.41,14.41,0,0,0-18.83,0l-3.26,2.79a6.16,6.16,0,0,1-8.06,0L538.23,287a14.42,14.42,0,0,0-18.84,0l-3.26,2.79a6.19,6.19,0,0,1-4,1.5v8.3a14.43,14.43,0,0,0,9.42-3.51Z"/><path class="cls-3" d="M524.78,243.16a6.16,6.16,0,0,1,8.06,0L536.1,246a14.38,14.38,0,0,0,18.83,0l3.26-2.79a6.16,6.16,0,0,1,8.06,0l3.26,2.79a14.42,14.42,0,0,0,18.84,0l3.26-2.79a6.16,6.16,0,0,1,8.06,0l3.26,2.79a14.4,14.4,0,0,0,9.41,3.51v-8.05H512.1v8.05a14.43,14.43,0,0,0,9.42-3.51Z"/><path class="cls-3" d="M524.78,259.87a6.16,6.16,0,0,1,8.06,0l3.26,2.79a14.41,14.41,0,0,0,18.83,0l3.26-2.79a6.16,6.16,0,0,1,8.06,0l3.26,2.79a14.42,14.42,0,0,0,18.84,0l3.26-2.79a6.16,6.16,0,0,1,8.06,0l3.26,2.79a14.39,14.39,0,0,0,9.41,3.5v-8.29a6.19,6.19,0,0,1-4-1.5l-3.26-2.79a14.41,14.41,0,0,0-18.83,0L583,256.37a6.16,6.16,0,0,1-8.06,0l-3.26-2.79a14.41,14.41,0,0,0-18.83,0l-3.26,2.79a6.16,6.16,0,0,1-8.06,0l-3.26-2.79a14.42,14.42,0,0,0-18.84,0l-3.26,2.79a6.19,6.19,0,0,1-4,1.5v8.29a14.42,14.42,0,0,0,9.42-3.5Z"/><rect class="cls-3" x="712.59" y="241.41" width="50.12" height="50.12"/><polygon class="cls-4" points="762.71 266.47 737.65 266.47 737.65 241.41 762.71 266.47"/><polygon class="cls-4" points="737.65 266.47 712.59 266.47 712.59 241.41 737.65 266.47"/><polygon class="cls-4" points="762.71 291.53 737.65 291.53 737.65 266.47 762.71 291.53"/><polygon class="cls-4" points="737.65 291.53 712.59 291.53 712.59 266.47 737.65 291.53"/><rect class="cls-3" x="662.46" y="241.41" width="50.12" height="50.12"/><polygon class="cls-4" points="712.59 266.47 687.52 266.47 687.52 241.41 712.59 266.47"/><polygon class="cls-4" points="687.52 266.47 662.46 266.47 662.46 241.41 687.52 266.47"/><polygon class="cls-4" points="712.59 291.53 687.52 291.53 687.52 266.47 712.59 291.53"/><polygon class="cls-4" points="687.52 291.53 662.46 291.53 662.46 266.47 687.52 291.53"/><rect class="cls-2" x="662.46" y="291.53" width="100.24" height="100.24"/><rect class="cls-5" x="677.14" y="306.21" width="70.88" height="70.88" transform="translate(-32.87 603.94) rotate(-45)"/><rect class="cls-6" x="662.46" y="441.9" width="50.12" height="50.12"/><rect class="cls-5" x="700.05" y="466.96" width="12.53" height="25.06"/><rect class="cls-5" x="674.99" y="466.96" width="12.53" height="25.06"/><rect class="cls-5" x="687.52" y="441.9" width="12.53" height="25.06"/><rect class="cls-5" x="662.46" y="441.9" width="12.53" height="25.06"/><rect class="cls-4" x="562.22" y="291.53" width="50.12" height="50.12"/><rect class="cls-6" x="599.81" y="291.53" width="12.53" height="25.06"/><rect class="cls-6" x="574.75" y="291.53" width="12.53" height="25.06"/><rect class="cls-6" x="587.28" y="316.59" width="12.53" height="25.06"/><rect class="cls-6" x="562.22" y="316.59" width="12.53" height="25.06"/><rect class="cls-3" x="612.34" y="291.53" width="50.12" height="50.12"/><path class="cls-4" d="M645.76,316.59H637.4v25.06h8.36Zm16.7,0h-8.35v25.06h8.35Zm-33.41,25.06V316.59H620.7v25.06Z"/><path class="cls-4" d="M637.4,291.53h-8.35v25.06h8.35Zm16.71,0h-8.35v25.06h8.35ZM620.7,316.59V291.53h-8.36v25.06Z"/><rect class="cls-4" x="612.34" y="341.65" width="50.12" height="50.12"/><path d="M629.05,391.77h8.35V358.36h-8.35Zm-16.71,0h8.36V358.36h-8.36Zm41.77,0V358.36h-8.35v33.41Z"/><path d="M637.4,358.36h8.36V341.65H637.4Zm-16.7,0h8.35V341.65H620.7Zm41.76,0V341.65h-8.35v16.71Z"/><rect class="cls-6" x="712.59" y="391.77" width="50.12" height="50.12"/><path d="M762.71,416.83V391.77H737.65A25.06,25.06,0,0,1,762.71,416.83Z"/><path d="M737.65,441.9h25.06V416.83A25.06,25.06,0,0,1,737.65,441.9Z"/><path d="M737.65,391.77H712.59v25.06A25.06,25.06,0,0,1,737.65,391.77Z"/><path d="M737.65,441.9a25.06,25.06,0,0,1-25.06-25.07V441.9Z"/><rect class="cls-4" x="512.1" y="441.9" width="50.12" height="50.12"/><path class="cls-5" d="M537.16,492A25.06,25.06,0,1,0,512.1,467,25.06,25.06,0,0,0,537.16,492Zm0-37.59A12.53,12.53,0,1,1,524.63,467,12.53,12.53,0,0,1,537.16,454.43Z"/><rect class="cls-3" x="512.1" y="391.77" width="50.12" height="50.12"/><path class="cls-5" d="M562.22,441.9V391.77H512.1V441.9ZM525,404.71h24.24V429H525Z"/><rect class="cls-3" x="712.59" y="441.9" width="50.12" height="50.12"/><polygon points="712.59 473.22 731.38 473.22 731.38 492.02 743.91 492.02 743.91 473.22 762.71 473.22 762.71 460.69 743.91 460.69 743.91 441.89 731.38 441.89 731.38 460.69 712.59 460.69 712.59 473.22"/><rect x="512.1" y="291.53" width="50.12" height="50.12"/><polygon class="cls-5" points="512.1 341.65 520.96 341.65 537.16 325.45 553.36 341.65 562.22 341.65 562.22 332.79 546.02 316.59 562.22 300.39 562.22 291.53 553.36 291.53 537.16 307.73 520.96 291.53 512.1 291.53 512.1 300.39 528.3 316.59 512.1 332.79 512.1 341.65"/><rect class="cls-5" x="662.46" y="391.77" width="50.12" height="50.12"/><polygon points="712.59 433.04 712.59 400.63 696.38 416.83 712.59 433.04"/><polygon points="671.33 441.89 703.73 441.89 687.52 425.69 671.33 441.89"/><polygon points="662.46 400.63 662.46 433.04 678.66 416.83 662.46 400.63"/><polygon points="703.73 391.77 671.33 391.77 687.52 407.98 703.73 391.77"/><rect class="cls-3" x="562.22" y="341.65" width="50.12" height="50.12"/><polygon class="cls-5" points="562.22 375.07 578.93 375.07 578.93 391.77 595.64 391.77 595.64 375.07 612.34 375.07 612.34 358.36 595.64 358.36 595.64 341.65 578.93 341.65 578.93 358.36 562.22 358.36 562.22 375.07"/><rect x="612.34" y="241.41" width="50.12" height="50.12"/><rect class="cls-5" x="645.76" y="241.41" width="16.71" height="16.71"/><rect class="cls-5" x="645.76" y="274.83" width="16.71" height="16.71"/><rect class="cls-5" x="612.34" y="241.41" width="16.71" height="16.71"/><rect class="cls-5" x="612.34" y="274.83" width="16.71" height="16.71"/><rect class="cls-3" x="562.22" y="391.77" width="100.24" height="75.18"/><rect class="cls-4" x="562.22" y="426.55" width="100.24" height="10.64"/><rect class="cls-4" x="562.22" y="406.5" width="100.24" height="10.64"/><rect class="cls-4" x="562.22" y="391.77" width="100.24" height="5.32"/><rect class="cls-4" x="562.22" y="446.6" width="100.24" height="10.64"/><rect class="cls-4" x="512.1" y="341.65" width="50.12" height="50.12"/><path class="cls-3" d="M562.22,366.75l-25.09-25.1H529.6l32.62,32.62Zm0-25.1H558l4.26,4.27Zm0,39.27L523,341.65h-7.52l46.79,46.8Zm0-28.35-10.91-10.92h-7.53l18.44,18.45Zm-45.85,39.2-4.27-4.26v4.26Zm14.17,0L512.1,373.33v7.53L523,391.77Zm28.36,0L512.1,345v7.52l39.27,39.27Zm-14.18,0L512.1,359.15v7.53l25.09,25.09Z"/></g></g></g></svg>