
<svg width="832px" height="486px" viewBox="0 0 832 486" version="1.1" xmlns="http://www.w3.org/2000/svg" xmlns:xlink="http://www.w3.org/1999/xlink">
    <defs>
        <path d="M531.080004,2.9025 L267.660004,233.9025 C259.940004,237.7725 253.660004,247.9025 253.660004,256.5725 L253.660004,470.1325 C253.660004,478.7725 259.940004,482.6725 267.660004,478.8025 L531.080004,247.8625 C538.820004,243.9825 551.350004,243.9825 559.080004,247.8625 L817.280004,478.8025 C825.020004,482.6725 831.280004,478.8025 831.280004,470.1325 L831.280004,256.5225 C831.280004,240.2825 813.640004,230.3125 802.900004,221.0025 C788.680004,208.6625 597.760004,37.4825 559.090004,2.9025 C551.350004,-0.9675 538.820004,-0.9675 531.090004,2.9025 L531.080004,2.9025 Z" id="path-0o933dfuv6-1"></path>
    </defs>
    <g id="Page-1" stroke="none" stroke-width="1" fill="none" fill-rule="evenodd" style="opacity:.3;">
        <g id="Group" transform="translate(-0.000004, -0.002500)">
            <polygon id="Path" fill="#2E2D32" fill-rule="nonzero" points="3.99319327e-06 235.1025 100.240004 235.1025 100.240004 285.2225 3.99319327e-06 285.2225"></polygon>
            <path d="M12.680004,270.2625 C14.9970596,268.26949 18.4229484,268.26949 20.740004,270.2625 L24.000004,273.0625 C29.4087555,277.730525 37.4212524,277.730525 42.830004,273.0625 L46.090004,270.2625 C48.4086318,268.273734 51.8313762,268.273734 54.150004,270.2625 L57.410004,273.0625 C62.8220013,277.732 70.8380067,277.732 76.250004,273.0625 L79.510004,270.2725 C81.8270596,268.27949 85.2529484,268.27949 87.570004,270.2725 L90.830004,273.0725 C93.4475254,275.326366 96.7858309,276.568031 100.240004,276.5725 L100.240004,268.2825 C98.771715,268.2687 97.3553233,267.737553 96.240004,266.7825 L93.000004,264.0025 C87.5912524,259.334475 79.5787555,259.334475 74.170004,264.0025 L70.910004,266.8025 C68.5913762,268.791266 65.1686318,268.791266 62.850004,266.8025 L59.540004,264.0025 C54.1312524,259.334475 46.1187555,259.334475 40.710004,264.0025 L37.450004,266.8025 C35.1329484,268.79551 31.7070596,268.79551 29.390004,266.8025 L26.120004,264.0025 C20.7112524,259.334475 12.6987555,259.334475 7.29000399,264.0025 L4.00000399,266.7725 C2.88692081,267.731333 1.46909371,268.263018 3.99319327e-06,268.2725 L3.99319327e-06,276.5625 C3.45698061,276.556884 6.79804698,275.315511 9.42000399,273.0625 L12.680004,270.2625 Z" id="Path" fill="#3D3C43" fill-rule="nonzero"></path>
            <path d="M12.680004,287.0025 C14.9938815,285.00094 18.4261265,285.00094 20.740004,287.0025 L24.000004,289.7625 C29.4039601,294.443403 37.4260479,294.443403 42.830004,289.7625 L46.090004,287.0025 C48.4038815,285.00094 51.8361265,285.00094 54.150004,287.0025 L57.410004,289.7925 C62.8188115,294.470572 70.8411965,294.470572 76.250004,289.7925 L79.510004,287.0025 C81.8238815,285.00094 85.2561265,285.00094 87.570004,287.0025 L90.830004,289.7925 C93.4437964,292.05387 96.7837492,293.299697 100.240004,293.3025 L100.240004,285.0025 C98.7709143,284.993018 97.3530872,284.461333 96.240004,283.5025 L93.000004,280.6825 C87.5912524,276.014475 79.5787555,276.014475 74.170004,280.6825 L70.910004,283.4725 C68.5961265,285.47406 65.1638815,285.47406 62.850004,283.4725 L59.590004,280.6825 C54.1812524,276.014475 46.1687555,276.014475 40.760004,280.6825 L37.500004,283.4725 C35.1861265,285.47406 31.7538815,285.47406 29.440004,283.4725 L26.170004,280.6825 C20.7612524,276.014475 12.7487555,276.014475 7.34000399,280.6825 L4.00000399,283.4725 C2.89118643,284.442188 1.47291079,284.984679 3.99319327e-06,285.0025 L3.99319327e-06,293.3025 C3.45889567,293.297641 6.80130068,292.052223 9.42000399,289.7925 L12.680004,287.0025 Z" id="Path" fill="#3D3C43" fill-rule="nonzero"></path>
            <path d="M12.680004,236.8525 C14.9938815,234.85094 18.4261265,234.85094 20.740004,236.8525 L24.000004,239.6425 C29.4087555,244.310525 37.4212524,244.310525 42.830004,239.6425 L46.090004,236.8525 C48.4038815,234.85094 51.8361265,234.85094 54.150004,236.8525 L57.410004,239.6425 C62.8220013,244.312 70.8380067,244.312 76.250004,239.6425 L79.510004,236.8525 C81.8238815,234.85094 85.2561265,234.85094 87.570004,236.8525 L90.830004,239.6425 C93.4437964,241.90387 96.7837492,243.149697 100.240004,243.1525 L100.240004,235.1025 L3.99319327e-06,235.1025 L3.99319327e-06,243.1525 C3.45889567,243.147641 6.80130068,241.902223 9.42000399,239.6425 L12.680004,236.8525 Z" id="Path" fill="#3D3C43" fill-rule="nonzero"></path>
            <path d="M12.680004,253.5625 C14.9938815,251.56094 18.4261265,251.56094 20.740004,253.5625 L24.000004,256.3525 C29.4087555,261.020525 37.4212524,261.020525 42.830004,256.3525 L46.090004,253.5625 C48.4038815,251.56094 51.8361265,251.56094 54.150004,253.5625 L57.410004,256.3525 C62.8220013,261.022 70.8380067,261.022 76.250004,256.3525 L79.510004,253.5625 C81.8238815,251.56094 85.2561265,251.56094 87.570004,253.5625 L90.830004,256.3525 C93.4447656,258.611035 96.784869,259.853369 100.240004,259.8525 L100.240004,251.5625 C98.7709143,251.553018 97.3530872,251.021333 96.240004,250.0625 L93.000004,247.2725 C87.5944446,242.595899 79.5755634,242.595899 74.170004,247.2725 L70.910004,250.0625 C68.5961265,252.06406 65.1638815,252.06406 62.850004,250.0625 L59.590004,247.2725 C54.1844446,242.595899 46.1655634,242.595899 40.760004,247.2725 L37.500004,250.0625 C35.1861265,252.06406 31.7538815,252.06406 29.440004,250.0625 L26.170004,247.2725 C20.7660479,242.591597 12.7439601,242.591597 7.34000399,247.2725 L4.00000399,250.0625 C2.88692081,251.021333 1.46909371,251.553018 3.99319327e-06,251.5625 L3.99319327e-06,259.8525 C3.45777856,259.85131 6.80033273,258.609385 9.42000399,256.3525 L12.680004,253.5625 Z" id="Path" fill="#3D3C43" fill-rule="nonzero"></path>
            <rect id="Rectangle" fill="#3D3C43" fill-rule="nonzero" x="200.480004" y="235.1025" width="50.12" height="50.12"></rect>
            <polygon id="Path" fill="#2E2C39" fill-rule="nonzero" points="250.600004 260.1625 225.540004 260.1625 225.540004 235.1025"></polygon>
            <polygon id="Path" fill="#2E2C39" fill-rule="nonzero" points="225.540004 260.1625 200.480004 260.1625 200.480004 235.1025"></polygon>
            <polygon id="Path" fill="#2E2C39" fill-rule="nonzero" points="250.600004 285.2225 225.540004 285.2225 225.540004 260.1625"></polygon>
            <polygon id="Path" fill="#2E2C39" fill-rule="nonzero" points="225.540004 285.2225 200.480004 285.2225 200.480004 260.1625"></polygon>
            <rect id="Rectangle" fill="#3D3C43" fill-rule="nonzero" x="150.360004" y="235.1025" width="50.12" height="50.12"></rect>
            <polygon id="Path" fill="#2E2C39" fill-rule="nonzero" points="200.480004 260.1625 175.420004 260.1625 175.420004 235.1025"></polygon>
            <polygon id="Path" fill="#2E2C39" fill-rule="nonzero" points="175.420004 260.1625 150.360004 260.1625 150.360004 235.1025"></polygon>
            <polygon id="Path" fill="#2E2C39" fill-rule="nonzero" points="200.480004 285.2225 175.420004 285.2225 175.420004 260.1625"></polygon>
            <polygon id="Path" fill="#2E2C39" fill-rule="nonzero" points="175.420004 285.2225 150.360004 285.2225 150.360004 260.1625"></polygon>
            <rect id="Rectangle" fill="#2E2D32" fill-rule="nonzero" x="150.360004" y="285.2225" width="100.24" height="100.24"></rect>
            <rect id="Rectangle" fill="#35333B" fill-rule="nonzero" transform="translate(200.481959, 335.342921) rotate(-45.000000) translate(-200.481959, -335.342921) " x="165.041959" y="299.902921" width="70.88" height="70.88"></rect>
            <rect id="Rectangle" fill="#3D3B46" fill-rule="nonzero" x="150.360004" y="435.5825" width="50.12" height="50.12"></rect>
            <rect id="Rectangle" fill="#35333B" fill-rule="nonzero" x="187.950004" y="460.6425" width="12.53" height="25.06"></rect>
            <rect id="Rectangle" fill="#35333B" fill-rule="nonzero" x="162.890004" y="460.6425" width="12.53" height="25.06"></rect>
            <rect id="Rectangle" fill="#35333B" fill-rule="nonzero" x="175.420004" y="435.5825" width="12.53" height="25.06"></rect>
            <rect id="Rectangle" fill="#35333B" fill-rule="nonzero" x="150.360004" y="435.5825" width="12.53" height="25.06"></rect>
            <rect id="Rectangle" fill="#2E2C39" fill-rule="nonzero" x="50.120004" y="285.2225" width="50.12" height="50.12"></rect>
            <rect id="Rectangle" fill="#3D3B46" fill-rule="nonzero" x="87.710004" y="285.2225" width="12.53" height="25.06"></rect>
            <rect id="Rectangle" fill="#3D3B46" fill-rule="nonzero" x="62.650004" y="285.2225" width="12.53" height="25.06"></rect>
            <rect id="Rectangle" fill="#3D3B46" fill-rule="nonzero" x="75.180004" y="310.2825" width="12.53" height="25.06"></rect>
            <rect id="Rectangle" fill="#3D3B46" fill-rule="nonzero" x="50.120004" y="310.2825" width="12.53" height="25.06"></rect>
            <rect id="Rectangle" fill="#3D3C43" fill-rule="nonzero" x="100.240004" y="285.2225" width="50.12" height="50.12"></rect>
            <path d="M133.660004,310.2825 L125.300004,310.2825 L125.300004,335.3425 L133.660004,335.3425 L133.660004,310.2825 Z M150.360004,310.2825 L142.000004,310.2825 L142.000004,335.3425 L150.350004,335.3425 L150.360004,310.2825 Z M117.000004,335.3425 L117.000004,310.2825 L108.600004,310.2825 L108.600004,335.3425 L117.000004,335.3425 Z" id="Shape" fill="#2E2C39" fill-rule="nonzero"></path>
            <path d="M125.300004,285.2225 L117.000004,285.2225 L117.000004,310.2825 L125.350004,310.2825 L125.300004,285.2225 Z M142.010004,285.2225 L133.660004,285.2225 L133.660004,310.2825 L142.000004,310.2825 L142.010004,285.2225 Z M108.600004,310.2825 L108.600004,285.2225 L100.240004,285.2225 L100.240004,310.2825 L108.600004,310.2825 Z" id="Shape" fill="#2E2C39" fill-rule="nonzero"></path>
            <rect id="Rectangle" fill="#2E2C39" fill-rule="nonzero" x="100.240004" y="335.3425" width="50.12" height="50.12"></rect>
            <path d="M117.000004,385.4625 L125.350004,385.4625 L125.350004,352.0525 L117.000004,352.0525 L117.000004,385.4625 Z M100.290004,385.4625 L108.650004,385.4625 L108.650004,352.0525 L100.290004,352.0525 L100.290004,385.4625 Z M142.060004,385.4625 L142.060004,352.0525 L133.710004,352.0525 L133.710004,385.4625 L142.060004,385.4625 Z" id="Shape" fill="#29282E" fill-rule="nonzero"></path>
            <path d="M125.300004,352.0525 L133.660004,352.0525 L133.660004,335.3425 L125.300004,335.3425 L125.300004,352.0525 Z M108.600004,352.0525 L117.000004,352.0525 L117.000004,335.3425 L108.600004,335.3425 L108.600004,352.0525 Z M150.360004,352.0525 L150.360004,335.3425 L142.000004,335.3425 L142.000004,352.0525 L150.360004,352.0525 Z" id="Shape" fill="#29282E" fill-rule="nonzero"></path>
            <rect id="Rectangle" fill="#3D3B46" fill-rule="nonzero" x="200.480004" y="385.4625" width="50.12" height="50.12"></rect>
            <path d="M250.600004,410.5225 L250.600004,385.4625 L225.540004,385.4625 C239.38026,385.4625 250.600004,396.682244 250.600004,410.5225 Z" id="Path" fill="#29282E" fill-rule="nonzero"></path>
            <path d="M225.540004,435.5825 L250.600004,435.5825 L250.600004,410.5225 C250.600004,424.362756 239.38026,435.5825 225.540004,435.5825 Z" id="Path" fill="#29282E" fill-rule="nonzero"></path>
            <path d="M225.540004,385.4625 L200.480004,385.4625 L200.480004,410.5225 C200.480004,396.682244 211.699748,385.4625 225.540004,385.4625 Z" id="Path" fill="#29282E" fill-rule="nonzero"></path>
            <path d="M225.540004,435.5825 C211.699748,435.5825 200.480004,424.362756 200.480004,410.5225 L200.480004,435.5825 L225.540004,435.5825 Z" id="Path" fill="#29282E" fill-rule="nonzero"></path>
            <rect id="Rectangle" fill="#2E2C39" fill-rule="nonzero" x="3.99319327e-06" y="435.5825" width="50.12" height="50.12"></rect>
            <path d="M25.060004,485.712502 C35.2007815,485.716545 44.3452818,479.611001 48.2287925,470.243305 C52.1123032,460.875609 49.9698895,450.090915 42.8007069,442.918872 C35.6315243,435.746828 24.8476862,433.600112 15.4784415,437.479885 C6.10919677,441.359658 1.99509299e-06,450.501722 1.99509299e-06,460.6425 C-0.00264886323,467.290558 2.63642238,473.667236 7.33637159,478.369061 C12.0363208,483.070885 18.4119458,485.712502 25.060004,485.712502 L25.060004,485.712502 Z M25.060004,448.112496 C30.1337783,448.108456 34.7100176,451.162245 36.6535358,455.849029 C38.5970539,460.535812 37.5248204,465.931914 33.937119,469.519615 C30.3494177,473.107316 24.9533161,474.17955 20.2665326,472.236032 C15.5797491,470.292514 12.5259595,465.716274 12.53,460.6425 C12.53,453.722372 18.1398761,448.112496 25.060004,448.112496 Z" id="Shape" fill="#35333B" fill-rule="nonzero"></path>
            <rect id="Rectangle" fill="#3D3C43" fill-rule="nonzero" x="3.99319327e-06" y="385.4625" width="50.12" height="50.12"></rect>
            <path d="M50.120004,435.5825 L50.120004,385.4625 L3.99319327e-06,385.4625 L3.99319327e-06,435.5825 L50.120004,435.5825 Z M12.940004,398.4025 L37.180004,398.4025 L37.180004,422.6525 L12.940004,422.6525 L12.940004,398.4025 Z" id="Shape" fill="#35333B" fill-rule="nonzero"></path>
            <rect id="Rectangle" fill="#3D3C43" fill-rule="nonzero" x="200.480004" y="435.5825" width="50.12" height="50.12"></rect>
            <polygon id="Path" fill="#29282E" fill-rule="nonzero" points="200.480004 466.9125 219.280004 466.9125 219.280004 485.7025 231.810004 485.7025 231.810004 466.9125 250.600004 466.9125 250.600004 454.3825 231.810004 454.3825 231.810004 435.5825 219.280004 435.5825 219.280004 454.3825 200.480004 454.3825"></polygon>
            <rect id="Rectangle" fill="#29282E" fill-rule="nonzero" x="3.99319327e-06" y="285.2225" width="50.12" height="50.12"></rect>
            <polygon id="Path" fill="#35333B" fill-rule="nonzero" points="3.99319327e-06 335.3425 8.86000399 335.3425 25.060004 319.1425 41.260004 335.3425 50.120004 335.3425 50.120004 326.4825 33.920004 310.2825 50.120004 294.0825 50.120004 285.2225 41.260004 285.2225 25.060004 301.4225 8.86000399 285.2225 3.99319327e-06 285.2225 3.99319327e-06 294.0825 16.200004 310.2825 3.99319327e-06 326.4825"></polygon>
            <rect id="Rectangle" fill="#35333B" fill-rule="nonzero" x="150.360004" y="385.4625" width="50.12" height="50.12"></rect>
            <polygon id="Path" fill="#29282E" fill-rule="nonzero" points="200.480004 426.7225 200.480004 394.3225 184.280004 410.5225"></polygon>
            <polygon id="Path" fill="#29282E" fill-rule="nonzero" points="159.220004 435.5825 191.620004 435.5825 175.420004 419.3825"></polygon>
            <polygon id="Path" fill="#29282E" fill-rule="nonzero" points="150.360004 394.3225 150.360004 426.7225 166.560004 410.5225"></polygon>
            <polygon id="Path" fill="#29282E" fill-rule="nonzero" points="191.620004 385.4625 159.220004 385.4625 175.420004 401.6625"></polygon>
            <rect id="Rectangle" fill="#3D3C43" fill-rule="nonzero" x="50.120004" y="335.3425" width="50.12" height="50.12"></rect>
            <polygon id="Path" fill="#35333B" fill-rule="nonzero" points="50.120004 368.7625 66.830004 368.7625 66.830004 385.4625 83.530004 385.4625 83.530004 368.7625 100.240004 368.7625 100.240004 352.0525 83.530004 352.0525 83.530004 335.3425 66.830004 335.3425 66.830004 352.0525 50.120004 352.0525"></polygon>
            <rect id="Rectangle" fill="#29282E" fill-rule="nonzero" x="100.240004" y="235.1025" width="50.12" height="50.12"></rect>
            <rect id="Rectangle" fill="#35333B" fill-rule="nonzero" x="133.660004" y="235.1025" width="16.71" height="16.71"></rect>
            <rect id="Rectangle" fill="#35333B" fill-rule="nonzero" x="133.660004" y="268.5125" width="16.71" height="16.71"></rect>
            <rect id="Rectangle" fill="#35333B" fill-rule="nonzero" x="100.240004" y="235.1025" width="16.71" height="16.71"></rect>
            <rect id="Rectangle" fill="#35333B" fill-rule="nonzero" x="100.240004" y="268.5125" width="16.71" height="16.71"></rect>
            <rect id="Rectangle" fill="#3D3C43" fill-rule="nonzero" x="50.120004" y="385.4625" width="100.24" height="75.18"></rect>
            <rect id="Rectangle" fill="#2E2C39" fill-rule="nonzero" x="50.120004" y="420.2425" width="100.24" height="10.64"></rect>
            <rect id="Rectangle" fill="#2E2C39" fill-rule="nonzero" x="50.120004" y="400.1925" width="100.24" height="10.64"></rect>
            <rect id="Rectangle" fill="#2E2C39" fill-rule="nonzero" x="50.120004" y="385.4625" width="100.24" height="5.32"></rect>
            <rect id="Rectangle" fill="#2E2C39" fill-rule="nonzero" x="50.120004" y="440.2925" width="100.24" height="10.64"></rect>
            <rect id="Rectangle" fill="#2E2C39" fill-rule="nonzero" x="3.99319327e-06" y="335.3425" width="50.12" height="50.12"></rect>
            <path d="M50.120004,360.4425 L25.000004,335.3425 L17.500004,335.3425 L50.120004,368.0025 L50.120004,360.4425 Z M50.120004,335.3425 L45.850004,335.3425 L50.120004,339.6125 L50.120004,335.3425 Z M50.120004,374.6125 L10.850004,335.3425 L3.32000399,335.3425 L50.120004,382.1425 L50.120004,374.6125 Z M50.120004,346.2625 L39.200004,335.3425 L31.680004,335.3425 L50.120004,353.7925 L50.120004,346.2625 Z M4.27000399,385.4625 L3.99319327e-06,381.2025 L3.99319327e-06,385.4625 L4.27000399,385.4625 Z M18.440004,385.4625 L3.99319327e-06,367.0025 L3.99319327e-06,374.5325 L10.920004,385.4425 L18.440004,385.4625 Z M46.800004,385.4625 L3.99319327e-06,338.6725 L3.99319327e-06,346.1925 L39.270004,385.4625 L46.800004,385.4625 Z M32.620004,385.4625 L3.99319327e-06,352.8425 L3.99319327e-06,360.3725 L25.090004,385.4625 L32.620004,385.4625 Z" id="Shape" fill="#3D3C43" fill-rule="nonzero"></path>
            <mask id="mask-0o933dfuv6-2" fill="white">
                <use xlink:href="#path-0o933dfuv6-1"></use>
            </mask>
            <g id="Path"></g>
            <rect id="Rectangle" fill="#39383E" fill-rule="nonzero" mask="url(#mask-0o933dfuv6-2)" x="253.660004" y="286.0525" width="50.68" height="50.69"></rect>
            <ellipse id="Oval" fill="#383642" fill-rule="nonzero" mask="url(#mask-0o933dfuv6-2)" cx="278.990004" cy="311.3925" rx="25.34" ry="25.35"></ellipse>
            <rect id="Rectangle" fill="#383642" fill-rule="nonzero" mask="url(#mask-0o933dfuv6-2)" x="456.360004" y="235.3625" width="50.68" height="50.69"></rect>
            <path d="M456.360004,235.3625 C456.360004,249.357396 467.705108,260.7025 481.700004,260.7025 C495.6949,260.7025 507.040004,249.357396 507.040004,235.3625 L456.360004,235.3625 Z" id="Path" fill="#29282E" fill-rule="nonzero" mask="url(#mask-0o933dfuv6-2)"></path>
            <rect id="Rectangle" fill="#2E2D32" fill-rule="nonzero" mask="url(#mask-0o933dfuv6-2)" x="355.010004" y="438.1225" width="50.68" height="50.69"></rect>
            <path d="M355.000003,438.1225 C354.997351,451.565404 360.335665,464.45863 369.840296,473.965136 C379.344927,483.471643 392.237099,488.8125 405.680004,488.8125 L405.680004,438.1225 L355.000003,438.1225 Z" id="Path" fill="#29282E" fill-rule="nonzero" mask="url(#mask-0o933dfuv6-2)"></path>
            <rect id="Rectangle" fill="#2E2D32" fill-rule="nonzero" mask="url(#mask-0o933dfuv6-2)" x="253.660004" y="438.1225" width="50.68" height="50.69"></rect>
            <path d="M253.66,438.1225 C253.654698,451.564484 258.990787,464.457736 268.49383,473.96453 C277.996874,483.471325 290.888019,488.8125 304.330004,488.8125 L304.330004,438.1225 L253.66,438.1225 Z" id="Path" fill="#383642" fill-rule="nonzero" mask="url(#mask-0o933dfuv6-2)"></path>
            <rect id="Rectangle" fill="#3D3B46" fill-rule="nonzero" mask="url(#mask-0o933dfuv6-2)" x="253.660004" y="387.4325" width="50.68" height="50.69"></rect>
            <path d="M253.66,387.4325 C253.654698,400.874484 258.990787,413.767736 268.49383,423.27453 C277.996874,432.781325 290.888019,438.1225 304.330004,438.1225 L304.330004,387.4325 L253.66,387.4325 Z" id="Path" fill="#39383E" fill-rule="nonzero" mask="url(#mask-0o933dfuv6-2)"></path>
            <rect id="Rectangle" fill="#383642" fill-rule="nonzero" mask="url(#mask-0o933dfuv6-2)" x="253.660004" y="336.7425" width="50.68" height="50.69"></rect>
            <path d="M253.66,336.7425 C253.654698,350.184484 258.990787,363.077736 268.49383,372.58453 C277.996874,382.091325 290.888019,387.4325 304.330004,387.4325 L304.330004,336.7425 L253.66,336.7425 Z" id="Path" fill="#29282E" fill-rule="nonzero" mask="url(#mask-0o933dfuv6-2)"></path>
            <rect id="Rectangle" fill="#3D3B46" fill-rule="nonzero" mask="url(#mask-0o933dfuv6-2)" x="253.660004" y="235.3625" width="50.68" height="50.69"></rect>
            <path d="M253.660004,286.0525 L304.330004,286.0525 C304.512222,276.881195 299.723648,268.327494 291.810043,263.688433 C283.896439,259.049371 274.093569,259.049371 266.179965,263.688433 C258.26636,268.327494 253.477786,276.881195 253.660004,286.0525 L253.660004,286.0525 Z" id="Path" fill="#29282E" fill-rule="nonzero" mask="url(#mask-0o933dfuv6-2)"></path>
            <path d="M279.000004,260.7025 C292.9949,260.7025 304.340004,249.357396 304.340004,235.3625 L253.660004,235.3625 C253.660004,249.357396 265.005108,260.7025 279.000004,260.7025 Z" id="Path" fill="#29282E" fill-rule="nonzero" mask="url(#mask-0o933dfuv6-2)"></path>
            <rect id="Rectangle" fill="#3D3B46" fill-rule="nonzero" mask="url(#mask-0o933dfuv6-2)" x="304.330004" y="286.0525" width="50.68" height="50.69"></rect>
            <path d="M355.000004,311.3925 C354.994485,297.399891 343.652613,286.058019 329.660004,286.0525 L304.330004,286.0525 L304.330004,311.3925 C304.330004,325.389014 315.673491,336.736979 329.670004,336.7425 L355.000004,336.7425 L355.000004,311.3925 Z" id="Path" fill="#29282E" fill-rule="nonzero" mask="url(#mask-0o933dfuv6-2)"></path>
            <rect id="Rectangle" fill="#39383E" fill-rule="nonzero" mask="url(#mask-0o933dfuv6-2)" x="304.330004" y="235.3625" width="50.68" height="50.69"></rect>
            <circle id="Oval" fill="#383642" fill-rule="nonzero" mask="url(#mask-0o933dfuv6-2)" cx="342.340004" cy="273.3825" r="12.67"></circle>
            <circle id="Oval" fill="#383642" fill-rule="nonzero" mask="url(#mask-0o933dfuv6-2)" cx="317.000004" cy="273.3825" r="12.67"></circle>
            <circle id="Oval" fill="#383642" fill-rule="nonzero" mask="url(#mask-0o933dfuv6-2)" cx="342.340004" cy="248.0325" r="12.67"></circle>
            <circle id="Oval" fill="#383642" fill-rule="nonzero" mask="url(#mask-0o933dfuv6-2)" cx="317.000004" cy="248.0325" r="12.67"></circle>
            <rect id="Rectangle" fill="#2E2D32" fill-rule="nonzero" mask="url(#mask-0o933dfuv6-2)" x="304.330004" y="336.7425" width="101.35" height="101.38"></rect>
            <rect id="Rectangle" fill="#383642" fill-rule="nonzero" mask="url(#mask-0o933dfuv6-2)" x="405.690004" y="387.4325" width="50.68" height="50.69"></rect>
            <path d="M431.000004,438.122502 L456.340006,438.122502 L456.340006,412.7825 C456.342658,419.503899 453.673768,425.950769 448.921021,430.703517 C444.168273,435.456264 437.721403,438.125154 431.000004,438.122502 L431.000004,438.122502 Z" id="Path" fill="#29282E" fill-rule="nonzero" mask="url(#mask-0o933dfuv6-2)"></path>
            <path d="M456.360006,412.7825 L456.360006,387.432492 L431.000004,387.432492 C437.725787,387.427191 444.177772,390.095963 448.934558,394.850873 C453.691344,399.605784 456.36266,406.056715 456.360006,412.7825 L456.360006,412.7825 Z" id="Path" fill="#29282E" fill-rule="nonzero" mask="url(#mask-0o933dfuv6-2)"></path>
            <path d="M418.350008,412.7825 C418.352657,409.422207 417.02033,406.198489 414.646119,403.820527 C412.271908,401.442565 409.050297,400.105151 405.690004,400.1025 L405.690004,425.4525 C409.049378,425.4525 412.271015,424.117311 414.645513,421.740937 C417.020011,419.364563 418.352658,416.141873 418.350008,412.7825 L418.350008,412.7825 Z" id="Path" fill="#29282E" fill-rule="nonzero" mask="url(#mask-0o933dfuv6-2)"></path>
            <path d="M431.000004,412.7825 C431.002657,419.502166 428.335139,425.94752 423.584555,430.69998 C418.833971,435.452439 412.389671,438.1225 405.670004,438.1225 L431.000004,438.1225 L431.000004,425.4525 C437.861603,425.25975 443.323949,419.641805 443.323949,412.7775 C443.323949,405.913195 437.861603,400.29525 431.000004,400.1025 L431.000004,387.4325 L405.690004,387.4325 C419.677088,387.449058 431.005534,398.795408 431.000004,412.7825 Z" id="Path" fill="#29282E" fill-rule="nonzero" mask="url(#mask-0o933dfuv6-2)"></path>
            <path d="M355.000004,286.0525 L355.000004,289.8625 L452.550004,289.8625 L452.550004,387.4325 L456.350004,387.4325 L456.350004,286.0525 L355.000004,286.0525 Z M355.000004,295.8125 L355.000004,299.6125 L442.800004,299.6125 L442.800004,387.4325 L446.610004,387.4325 L446.610004,295.8125 L355.000004,295.8125 Z M355.000004,305.5625 L355.000004,309.3725 L433.000004,309.3725 L433.000004,387.4325 L436.800004,387.4325 L436.800004,305.5625 L355.000004,305.5625 Z M355.000004,315.3225 L355.000004,319.1325 L423.280004,319.1325 L423.280004,387.4325 L427.090004,387.4325 L427.090004,315.3225 L355.000004,315.3225 Z M355.000004,325.0825 L355.000004,328.8925 L413.530004,328.8925 L413.530004,387.4325 L417.330004,387.4325 L417.330004,325.0825 L355.000004,325.0825 Z M355.000004,334.8425 L355.000004,338.6425 L403.770004,338.6425 L403.770004,387.4325 L407.580004,387.4325 L407.580004,334.8425 L355.000004,334.8425 Z M355.000004,344.5925 L355.000004,348.4025 L394.000004,348.4025 L394.000004,387.4025 L397.800004,387.4025 L397.800004,344.5925 L355.000004,344.5925 Z" id="Shape" fill="#39383E" fill-rule="nonzero" mask="url(#mask-0o933dfuv6-2)"></path>
            <rect id="Rectangle" fill="#383642" fill-rule="nonzero" mask="url(#mask-0o933dfuv6-2)" x="405.690004" y="438.1225" width="50.68" height="50.69"></rect>
            <polygon id="Path" fill="#29282E" fill-rule="nonzero" mask="url(#mask-0o933dfuv6-2)" points="405.690004 488.8125 456.360004 488.8125 431.020004 463.4725 456.360004 438.1225 405.690004 438.1225 431.020004 463.4725"></polygon>
            <rect id="Rectangle" fill="#39383E" fill-rule="nonzero" mask="url(#mask-0o933dfuv6-2)" x="456.360004" y="286.0525" width="50.68" height="50.69"></rect>
            <path d="M473.250004,303.0025 L473.250004,311.4425 L507.000004,311.4425 L507.000004,303.0025 L473.250004,303.0025 Z M473.250004,286.1025 L473.250004,294.5525 L507.000004,294.5525 L507.000004,286.1025 L473.250004,286.1025 Z M507.000004,319.8425 L473.250004,319.8425 L473.250004,328.2925 L507.000004,328.2925 L507.000004,319.8425 Z" id="Shape" fill="#3D3B46" fill-rule="nonzero" mask="url(#mask-0o933dfuv6-2)"></path>
            <path d="M456.360004,311.3925 L456.360004,319.8425 L473.250004,319.8425 L473.250004,311.3925 L456.360004,311.3925 Z M456.360004,294.5025 L456.360004,303.0025 L473.250004,303.0025 L473.250004,294.5025 L456.360004,294.5025 Z M473.250004,328.2925 L456.360004,328.2925 L456.360004,336.7425 L473.250004,336.7425 L473.250004,328.2925 Z" id="Shape" fill="#3D3B46" fill-rule="nonzero" mask="url(#mask-0o933dfuv6-2)"></path>
            <rect id="Rectangle" fill="#383642" fill-rule="nonzero" mask="url(#mask-0o933dfuv6-2)" x="456.360004" y="336.7425" width="50.68" height="50.69"></rect>
            <rect id="Rectangle" fill="#2E2D32" fill-rule="nonzero" mask="url(#mask-0o933dfuv6-2)" x="456.360004" y="364.4625" width="50.68" height="5.38"></rect>
            <rect id="Rectangle" fill="#2E2D32" fill-rule="nonzero" mask="url(#mask-0o933dfuv6-2)" x="456.360004" y="374.6025" width="50.68" height="5.38"></rect>
            <rect id="Rectangle" fill="#2E2D32" fill-rule="nonzero" mask="url(#mask-0o933dfuv6-2)" x="456.360004" y="384.7425" width="50.68" height="2.69"></rect>
            <rect id="Rectangle" fill="#2E2D32" fill-rule="nonzero" mask="url(#mask-0o933dfuv6-2)" x="456.360004" y="354.3325" width="50.68" height="5.38"></rect>
            <rect id="Rectangle" fill="#2E2D32" fill-rule="nonzero" mask="url(#mask-0o933dfuv6-2)" x="456.360004" y="336.7425" width="50.68" height="2.69"></rect>
            <rect id="Rectangle" fill="#2E2D32" fill-rule="nonzero" mask="url(#mask-0o933dfuv6-2)" x="456.360004" y="344.1925" width="50.68" height="5.38"></rect>
            <rect id="Rectangle" fill="#39383E" fill-rule="nonzero" mask="url(#mask-0o933dfuv6-2)" x="456.360004" y="438.1225" width="50.68" height="50.69"></rect>
            <polygon id="Path" fill="#383642" fill-rule="nonzero" mask="url(#mask-0o933dfuv6-2)" points="456.360004 465.8525 456.360004 471.2325 489.460004 471.2325 489.460004 438.1225 484.080004 438.1225 484.080004 465.8525"></polygon>
            <polygon id="Path" fill="#383642" fill-rule="nonzero" mask="url(#mask-0o933dfuv6-2)" points="456.360004 486.1225 456.360004 488.8125 507.040004 488.8125 507.040004 438.1225 504.350004 438.1225 504.350004 486.1225"></polygon>
            <polygon id="Path" fill="#383642" fill-rule="nonzero" mask="url(#mask-0o933dfuv6-2)" points="456.360004 475.9925 456.360004 481.3725 499.590004 481.3725 499.590004 438.1225 494.210004 438.1225 494.210004 475.9925"></polygon>
            <rect id="Rectangle" fill="#383642" fill-rule="nonzero" mask="url(#mask-0o933dfuv6-2)" x="456.360004" y="438.1225" width="2.69" height="2.69"></rect>
            <polygon id="Path" fill="#383642" fill-rule="nonzero" mask="url(#mask-0o933dfuv6-2)" points="456.360004 455.7125 456.360004 461.0925 479.320004 461.0925 479.320004 438.1225 473.940004 438.1225 473.940004 455.7125"></polygon>
            <polygon id="Path" fill="#383642" fill-rule="nonzero" mask="url(#mask-0o933dfuv6-2)" points="456.360004 445.5725 456.360004 450.9525 469.190004 450.9525 469.190004 438.1225 463.810004 438.1225 463.810004 445.5725"></polygon>
            <rect id="Rectangle" fill="#3D3B46" fill-rule="nonzero" mask="url(#mask-0o933dfuv6-2)" x="456.360004" y="387.4325" width="50.68" height="50.69"></rect>
            <polygon id="Path" fill="#29282E" fill-rule="nonzero" mask="url(#mask-0o933dfuv6-2)" points="479.320004 387.4325 473.940004 387.4325 473.940004 420.5425 507.040004 420.5425 507.040004 415.1525 479.320004 415.1525"></polygon>
            <polygon id="Path" fill="#29282E" fill-rule="nonzero" mask="url(#mask-0o933dfuv6-2)" points="459.050004 387.4325 456.360004 387.4325 456.360004 438.1225 507.040004 438.1225 507.040004 435.4325 459.050004 435.4325"></polygon>
            <polygon id="Path" fill="#29282E" fill-rule="nonzero" mask="url(#mask-0o933dfuv6-2)" points="469.190004 387.4325 463.810004 387.4325 463.810004 430.6825 507.040004 430.6825 507.040004 425.2925 469.190004 425.2925"></polygon>
            <rect id="Rectangle" fill="#29282E" fill-rule="nonzero" mask="url(#mask-0o933dfuv6-2)" x="504.350004" y="387.4325" width="2.69" height="2.69"></rect>
            <polygon id="Path" fill="#29282E" fill-rule="nonzero" mask="url(#mask-0o933dfuv6-2)" points="489.460004 387.4325 484.080004 387.4325 484.080004 410.4025 507.040004 410.4025 507.040004 405.0225 489.460004 405.0225"></polygon>
            <polygon id="Path" fill="#29282E" fill-rule="nonzero" mask="url(#mask-0o933dfuv6-2)" points="499.590004 387.4325 494.210004 387.4325 494.210004 400.2625 507.040004 400.2625 507.040004 394.8825 499.590004 394.8825"></polygon>
            <path d="M304.330003,387.4325 C304.335527,415.42229 327.030213,438.108021 355.020003,438.102499 C383.009794,438.096975 405.695525,415.40229 405.690003,387.412499 C405.684479,359.422709 382.989794,336.736978 355.000004,336.742499 C341.558832,336.745152 328.669229,342.08718 319.166761,351.593399 C309.664293,361.099618 304.327352,373.991328 304.330003,387.4325 Z M380.330004,387.4325 C380.330003,397.682483 374.155028,406.922999 364.684891,410.844563 C355.214754,414.766126 344.314784,412.59631 337.068382,405.347047 C329.82198,398.097784 327.656466,387.196959 331.581768,377.728371 C335.50707,368.259783 344.750022,362.088455 355.000004,362.092498 C368.996518,362.092498 380.344483,373.435987 380.350004,387.4325 L380.330004,387.4325 Z" id="Shape" fill="#35333B" fill-rule="nonzero" mask="url(#mask-0o933dfuv6-2)"></path>
            <rect id="Rectangle" fill="#3D3B46" fill-rule="nonzero" mask="url(#mask-0o933dfuv6-2)" x="355.010004" y="235.3625" width="50.68" height="50.69"></rect>
            <polygon id="Path" fill="#39383E" fill-rule="nonzero" mask="url(#mask-0o933dfuv6-2)" points="380.350004 235.3625 355.010004 260.7025 380.350004 286.0525 380.350004 260.7025 405.690004 286.0525 405.690004 235.3625 380.350004 260.7025"></polygon>
            <rect id="Rectangle" fill="#29282E" fill-rule="nonzero" mask="url(#mask-0o933dfuv6-2)" x="405.690004" y="235.3625" width="50.68" height="50.69"></rect>
            <polygon id="Path" fill="#2E2D32" fill-rule="nonzero" mask="url(#mask-0o933dfuv6-2)" points="431.020004 235.3625 405.690004 260.7025 431.020004 286.0525 431.020004 260.7025 456.360004 286.0525 456.360004 235.3625 431.020004 260.7025"></polygon>
            <rect id="Rectangle" fill="#39383E" fill-rule="nonzero" mask="url(#mask-0o933dfuv6-2)" x="253.660004" y="37.9325" width="50.68" height="50.69"></rect>
            <ellipse id="Oval" fill="#383642" fill-rule="nonzero" mask="url(#mask-0o933dfuv6-2)" cx="278.990004" cy="63.2725" rx="25.34" ry="25.35"></ellipse>
            <rect id="Rectangle" fill="#383642" fill-rule="nonzero" mask="url(#mask-0o933dfuv6-2)" x="456.360004" y="-12.7575" width="50.68" height="50.69"></rect>
            <path d="M456.360004,-12.7575 C456.360004,1.23739556 467.705108,12.5825 481.700004,12.5825 C495.679276,12.5604332 507.000004,1.22178946 507.000004,-12.7575 L456.360004,-12.7575 Z" id="Path" fill="#29282E" fill-rule="nonzero" mask="url(#mask-0o933dfuv6-2)"></path>
            <rect id="Rectangle" fill="#2E2D32" fill-rule="nonzero" mask="url(#mask-0o933dfuv6-2)" x="355.010004" y="190.0025" width="50.68" height="50.69"></rect>
            <path d="M355.000003,190.0025 C354.997351,203.445404 360.335665,216.33863 369.840296,225.845136 C379.344927,235.351643 392.237099,240.6925 405.680004,240.6925 L405.680004,190.0025 L355.000003,190.0025 Z" id="Path" fill="#29282E" fill-rule="nonzero" mask="url(#mask-0o933dfuv6-2)"></path>
            <rect id="Rectangle" fill="#2E2D32" fill-rule="nonzero" mask="url(#mask-0o933dfuv6-2)" x="253.660004" y="190.0025" width="50.68" height="50.69"></rect>
            <path d="M253.66,190.0025 C253.654698,203.444484 258.990787,216.337736 268.49383,225.84453 C277.996874,235.351325 290.888019,240.6925 304.330004,240.6925 L304.330004,190.0025 L253.66,190.0025 Z" id="Path" fill="#383642" fill-rule="nonzero" mask="url(#mask-0o933dfuv6-2)"></path>
            <rect id="Rectangle" fill="#3D3B46" fill-rule="nonzero" mask="url(#mask-0o933dfuv6-2)" x="253.660004" y="139.3125" width="50.68" height="50.69"></rect>
            <path d="M253.66,139.3125 C253.654698,152.754484 258.990787,165.647736 268.49383,175.15453 C277.996874,184.661325 290.888019,190.0025 304.330004,190.0025 L304.330004,139.3125 L253.66,139.3125 Z" id="Path" fill="#39383E" fill-rule="nonzero" mask="url(#mask-0o933dfuv6-2)"></path>
            <rect id="Rectangle" fill="#383642" fill-rule="nonzero" mask="url(#mask-0o933dfuv6-2)" x="253.660004" y="88.6225" width="50.68" height="50.69"></rect>
            <path d="M253.66,88.6225 C253.654698,102.064484 258.990787,114.957736 268.49383,124.46453 C277.996874,133.971325 290.888019,139.3125 304.330004,139.3125 L304.330004,88.6225 L253.66,88.6225 Z" id="Path" fill="#29282E" fill-rule="nonzero" mask="url(#mask-0o933dfuv6-2)"></path>
            <rect id="Rectangle" fill="#3D3B46" fill-rule="nonzero" mask="url(#mask-0o933dfuv6-2)" x="253.660004" y="-12.7575" width="50.68" height="50.69"></rect>
            <path d="M253.660004,37.9325 L304.330004,37.9325 C304.512222,28.7611955 299.723648,20.2074943 291.810043,15.5684326 C283.896439,10.9293709 274.093569,10.9293709 266.179965,15.5684326 C258.26636,20.2074943 253.477786,28.7611955 253.660004,37.9325 L253.660004,37.9325 Z" id="Path" fill="#29282E" fill-rule="nonzero" mask="url(#mask-0o933dfuv6-2)"></path>
            <path d="M279.000004,12.582502 C285.721403,12.5851541 292.168273,9.91626402 296.921021,5.16351674 C301.673768,0.410769463 304.342658,-6.03610086 304.340006,-12.7575 L253.660002,-12.7575 C253.65735,-6.03610086 256.32624,0.410769463 261.078987,5.16351674 C265.831735,9.91626402 272.278605,12.5851541 279.000004,12.582502 L279.000004,12.582502 Z" id="Path" fill="#29282E" fill-rule="nonzero" mask="url(#mask-0o933dfuv6-2)"></path>
            <rect id="Rectangle" fill="#3D3B46" fill-rule="nonzero" mask="url(#mask-0o933dfuv6-2)" x="304.330004" y="37.9325" width="50.68" height="50.69"></rect>
            <path d="M355.000004,63.2725 C354.994485,49.279891 343.652613,37.9380187 329.660004,37.9325 L304.330004,37.9325 L304.330004,63.2725 C304.330004,77.2690141 315.673491,88.6169787 329.670004,88.6225 L355.000004,88.6225 L355.000004,63.2725 Z" id="Path" fill="#29282E" fill-rule="nonzero" mask="url(#mask-0o933dfuv6-2)"></path>
            <rect id="Rectangle" fill="#39383E" fill-rule="nonzero" mask="url(#mask-0o933dfuv6-2)" x="304.330004" y="-12.7575" width="50.68" height="50.69"></rect>
            <circle id="Oval" fill="#383642" fill-rule="nonzero" mask="url(#mask-0o933dfuv6-2)" cx="342.340004" cy="25.2625" r="12.67"></circle>
            <circle id="Oval" fill="#383642" fill-rule="nonzero" mask="url(#mask-0o933dfuv6-2)" cx="317.000004" cy="25.2625" r="12.67"></circle>
            <circle id="Oval" fill="#383642" fill-rule="nonzero" mask="url(#mask-0o933dfuv6-2)" cx="342.340004" cy="-0.0875" r="12.67"></circle>
            <circle id="Oval" fill="#383642" fill-rule="nonzero" mask="url(#mask-0o933dfuv6-2)" cx="317.000004" cy="-0.0875" r="12.67"></circle>
            <rect id="Rectangle" fill="#2E2D32" fill-rule="nonzero" mask="url(#mask-0o933dfuv6-2)" x="304.330004" y="88.6225" width="101.35" height="101.38"></rect>
            <rect id="Rectangle" fill="#383642" fill-rule="nonzero" mask="url(#mask-0o933dfuv6-2)" x="405.690004" y="139.3125" width="50.68" height="50.69"></rect>
            <path d="M431.000004,190.002502 L456.340006,190.002502 L456.340006,164.6625 C456.342658,171.383899 453.673768,177.830769 448.921021,182.583517 C444.168273,187.336264 437.721403,190.005154 431.000004,190.002502 L431.000004,190.002502 Z" id="Path" fill="#29282E" fill-rule="nonzero" mask="url(#mask-0o933dfuv6-2)"></path>
            <path d="M456.360006,164.6625 L456.360006,139.312492 L431.000004,139.312492 C437.725787,139.307191 444.177772,141.975963 448.934558,146.730873 C453.691344,151.485784 456.36266,157.936715 456.360006,164.6625 L456.360006,164.6625 Z" id="Path" fill="#29282E" fill-rule="nonzero" mask="url(#mask-0o933dfuv6-2)"></path>
            <path d="M418.35004,164.6625 C418.344489,157.672861 412.679643,152.008015 405.690004,152.0025 L405.690004,177.3525 C409.052849,177.3525 412.277524,176.014574 414.652599,173.633872 C417.027674,171.253169 418.357973,168.025336 418.35004,164.6625 L418.35004,164.6625 Z" id="Path" fill="#29282E" fill-rule="nonzero" mask="url(#mask-0o933dfuv6-2)"></path>
            <path d="M431.000004,164.6625 C431.00553,178.64797 419.675471,189.991458 405.690004,190.0025 L431.000004,190.0025 L431.000004,177.3325 C437.755284,177.003626 443.063421,171.43078 443.063421,164.6675 C443.063421,157.90422 437.755284,152.331374 431.000004,152.0025 L431.000004,139.3125 L405.690004,139.3125 C419.677088,139.329058 431.005534,150.675408 431.000004,164.6625 Z" id="Path" fill="#29282E" fill-rule="nonzero" mask="url(#mask-0o933dfuv6-2)"></path>
            <path d="M355.000004,37.9325 L355.000004,41.7425 L452.550004,41.7425 L452.550004,139.3125 L456.350004,139.3125 L456.350004,37.9325 L355.000004,37.9325 Z M355.000004,47.6925 L355.000004,51.4925 L442.800004,51.4925 L442.800004,139.3125 L446.610004,139.3125 L446.610004,47.6925 L355.000004,47.6925 Z M355.000004,57.4425 L355.000004,61.2525 L433.000004,61.2525 L433.000004,139.3125 L436.800004,139.3125 L436.800004,57.4425 L355.000004,57.4425 Z M355.000004,67.2025 L355.000004,71.0025 L423.280004,71.0025 L423.280004,139.3025 L427.090004,139.3025 L427.090004,67.2025 L355.000004,67.2025 Z M355.000004,77.0025 L355.000004,80.8125 L413.530004,80.8125 L413.530004,139.3525 L417.330004,139.3525 L417.330004,77.0025 L355.000004,77.0025 Z M355.000004,86.7625 L355.000004,90.5625 L403.770004,90.5625 L403.770004,139.3525 L407.580004,139.3525 L407.580004,86.7225 L355.000004,86.7225 L355.000004,86.7625 Z M355.000004,96.5125 L355.000004,100.3225 L394.000004,100.3225 L394.000004,139.3225 L397.800004,139.3225 L397.800004,96.4725 L355.000004,96.4725 L355.000004,96.5125 Z" id="Shape" fill="#39383E" fill-rule="nonzero" mask="url(#mask-0o933dfuv6-2)"></path>
            <rect id="Rectangle" fill="#383642" fill-rule="nonzero" mask="url(#mask-0o933dfuv6-2)" x="405.690004" y="190.0025" width="50.68" height="50.69"></rect>
            <polygon id="Path" fill="#29282E" fill-rule="nonzero" mask="url(#mask-0o933dfuv6-2)" points="405.690004 240.6925 456.360004 240.6925 431.020004 215.3525 456.360004 190.0025 405.690004 190.0025 431.020004 215.3525"></polygon>
            <rect id="Rectangle" fill="#39383E" fill-rule="nonzero" mask="url(#mask-0o933dfuv6-2)" x="456.360004" y="37.9325" width="50.68" height="50.69"></rect>
            <path d="M473.250004,54.8325 L473.250004,63.2725 L507.000004,63.2725 L507.000004,54.8325 L473.250004,54.8325 Z M473.250004,37.9325 L473.250004,46.3825 L507.000004,46.3825 L507.000004,37.9325 L473.250004,37.9325 Z M507.000004,71.7225 L473.250004,71.7225 L473.250004,80.1725 L507.000004,80.1725 L507.000004,71.7225 Z" id="Shape" fill="#3D3B46" fill-rule="nonzero" mask="url(#mask-0o933dfuv6-2)"></path>
            <path d="M456.360004,63.2725 L456.360004,71.7225 L473.250004,71.7225 L473.250004,63.2725 L456.360004,63.2725 Z M456.360004,46.3825 L456.360004,54.8325 L473.250004,54.8325 L473.250004,46.3825 L456.360004,46.3825 Z M473.250004,80.1725 L456.360004,80.1725 L456.360004,88.6225 L473.250004,88.6225 L473.250004,80.1725 Z" id="Shape" fill="#3D3B46" fill-rule="nonzero" mask="url(#mask-0o933dfuv6-2)"></path>
            <rect id="Rectangle" fill="#383642" fill-rule="nonzero" mask="url(#mask-0o933dfuv6-2)" x="456.360004" y="88.6225" width="50.68" height="50.69"></rect>
            <rect id="Rectangle" fill="#2E2D32" fill-rule="nonzero" mask="url(#mask-0o933dfuv6-2)" x="456.360004" y="116.3425" width="50.68" height="5.38"></rect>
            <rect id="Rectangle" fill="#2E2D32" fill-rule="nonzero" mask="url(#mask-0o933dfuv6-2)" x="456.360004" y="126.4825" width="50.68" height="5.38"></rect>
            <rect id="Rectangle" fill="#2E2D32" fill-rule="nonzero" mask="url(#mask-0o933dfuv6-2)" x="456.360004" y="136.6225" width="50.68" height="2.69"></rect>
            <rect id="Rectangle" fill="#2E2D32" fill-rule="nonzero" mask="url(#mask-0o933dfuv6-2)" x="456.360004" y="106.2125" width="50.68" height="5.38"></rect>
            <rect id="Rectangle" fill="#2E2D32" fill-rule="nonzero" mask="url(#mask-0o933dfuv6-2)" x="456.360004" y="88.6225" width="50.68" height="2.69"></rect>
            <rect id="Rectangle" fill="#2E2D32" fill-rule="nonzero" mask="url(#mask-0o933dfuv6-2)" x="456.360004" y="96.0725" width="50.68" height="5.38"></rect>
            <rect id="Rectangle" fill="#39383E" fill-rule="nonzero" mask="url(#mask-0o933dfuv6-2)" x="456.360004" y="190.0025" width="50.68" height="50.69"></rect>
            <polygon id="Path" fill="#383642" fill-rule="nonzero" mask="url(#mask-0o933dfuv6-2)" points="456.360004 217.7325 456.360004 223.1125 489.460004 223.1125 489.460004 190.0025 484.080004 190.0025 484.080004 217.7325"></polygon>
            <polygon id="Path" fill="#383642" fill-rule="nonzero" mask="url(#mask-0o933dfuv6-2)" points="456.360004 238.0025 456.360004 240.6925 507.040004 240.6925 507.040004 190.0025 504.350004 190.0025 504.350004 238.0025"></polygon>
            <polygon id="Path" fill="#383642" fill-rule="nonzero" mask="url(#mask-0o933dfuv6-2)" points="456.360004 227.8725 456.360004 233.2525 499.590004 233.2525 499.590004 190.0025 494.210004 190.0025 494.210004 227.8725"></polygon>
            <rect id="Rectangle" fill="#383642" fill-rule="nonzero" mask="url(#mask-0o933dfuv6-2)" x="456.360004" y="190.0025" width="2.69" height="2.69"></rect>
            <polygon id="Path" fill="#383642" fill-rule="nonzero" mask="url(#mask-0o933dfuv6-2)" points="456.360004 207.5925 456.360004 212.9725 479.320004 212.9725 479.320004 190.0025 473.940004 190.0025 473.940004 207.5925"></polygon>
            <polygon id="Path" fill="#383642" fill-rule="nonzero" mask="url(#mask-0o933dfuv6-2)" points="456.360004 197.4525 456.360004 202.8325 469.190004 202.8325 469.190004 190.0025 463.810004 190.0025 463.810004 197.4525"></polygon>
            <rect id="Rectangle" fill="#3D3B46" fill-rule="nonzero" mask="url(#mask-0o933dfuv6-2)" x="456.360004" y="139.3125" width="50.68" height="50.69"></rect>
            <polygon id="Path" fill="#29282E" fill-rule="nonzero" mask="url(#mask-0o933dfuv6-2)" points="479.320004 139.3125 473.940004 139.3125 473.940004 172.4225 507.040004 172.4225 507.040004 167.0425 479.320004 167.0425"></polygon>
            <polygon id="Path" fill="#29282E" fill-rule="nonzero" mask="url(#mask-0o933dfuv6-2)" points="459.050004 139.3125 456.360004 139.3125 456.360004 190.0025 507.040004 190.0025 507.040004 187.3125 459.050004 187.3125"></polygon>
            <polygon id="Path" fill="#29282E" fill-rule="nonzero" mask="url(#mask-0o933dfuv6-2)" points="469.190004 139.3125 463.810004 139.3125 463.810004 182.5625 507.040004 182.5625 507.040004 177.1725 469.190004 177.1725"></polygon>
            <rect id="Rectangle" fill="#29282E" fill-rule="nonzero" mask="url(#mask-0o933dfuv6-2)" x="504.350004" y="139.3125" width="2.69" height="2.69"></rect>
            <polygon id="Path" fill="#29282E" fill-rule="nonzero" mask="url(#mask-0o933dfuv6-2)" points="489.460004 139.3125 484.080004 139.3125 484.080004 162.2825 507.040004 162.2825 507.040004 156.9025 489.460004 156.9025"></polygon>
            <polygon id="Path" fill="#29282E" fill-rule="nonzero" mask="url(#mask-0o933dfuv6-2)" points="499.590004 139.3125 494.210004 139.3125 494.210004 152.1425 507.040004 152.1425 507.040004 146.7625 499.590004 146.7625"></polygon>
            <path d="M304.330003,139.3125 C304.335527,167.30229 327.030213,189.988021 355.020003,189.982499 C383.009794,189.976975 405.695525,167.28229 405.690003,139.292499 C405.684479,111.302709 382.989794,88.6169777 355.000004,88.622499 C341.558832,88.6251519 328.669229,93.96718 319.166761,103.473399 C309.664293,112.979618 304.327352,125.871328 304.330003,139.3125 L304.330003,139.3125 Z M380.330004,139.3125 C380.342141,149.565204 374.174868,158.814924 364.705697,162.745943 C355.236527,166.676962 344.331639,164.514557 337.079014,157.267659 C329.826389,150.020761 327.655371,139.117584 331.578909,129.645312 C335.502448,120.173039 344.747293,113.998461 355.000004,114.002498 C368.984816,114.002498 380.327937,125.327705 380.350004,139.3125 L380.330004,139.3125 Z" id="Shape" fill="#35333B" fill-rule="nonzero" mask="url(#mask-0o933dfuv6-2)"></path>
            <rect id="Rectangle" fill="#3D3B46" fill-rule="nonzero" mask="url(#mask-0o933dfuv6-2)" x="355.010004" y="-12.7575" width="50.68" height="50.69"></rect>
            <polygon id="Path" fill="#39383E" fill-rule="nonzero" mask="url(#mask-0o933dfuv6-2)" points="380.350004 -12.7575 355.010004 12.5825 380.350004 37.9325 380.350004 12.5825 405.690004 37.9325 405.690004 -12.7575 380.350004 12.5825"></polygon>
            <rect id="Rectangle" fill="#29282E" fill-rule="nonzero" mask="url(#mask-0o933dfuv6-2)" x="405.690004" y="-12.7575" width="50.68" height="50.69"></rect>
            <polygon id="Path" fill="#2E2D32" fill-rule="nonzero" mask="url(#mask-0o933dfuv6-2)" points="431.020004 -12.7575 405.690004 12.5825 431.020004 37.9325 431.020004 12.5825 456.360004 37.9325 456.360004 -12.7575 431.020004 12.5825"></polygon>
            <rect id="Rectangle" fill="#39383E" fill-rule="nonzero" mask="url(#mask-0o933dfuv6-2)" x="509.320004" y="37.9325" width="50.68" height="50.69"></rect>
            <ellipse id="Oval" fill="#383642" fill-rule="nonzero" mask="url(#mask-0o933dfuv6-2)" cx="534.660004" cy="63.2725" rx="25.34" ry="25.35"></ellipse>
            <rect id="Rectangle" fill="#383642" fill-rule="nonzero" mask="url(#mask-0o933dfuv6-2)" x="712.030004" y="-12.7575" width="50.68" height="50.69"></rect>
            <path d="M712.000002,-12.7575 C711.99735,-6.03610086 714.66624,0.410769463 719.418987,5.16351674 C724.171735,9.91626402 730.618605,12.5851541 737.340004,12.582502 C751.3349,12.582502 762.680004,1.23739556 762.680004,-12.7575 L712.000002,-12.7575 Z" id="Path" fill="#29282E" fill-rule="nonzero" mask="url(#mask-0o933dfuv6-2)"></path>
            <rect id="Rectangle" fill="#2E2D32" fill-rule="nonzero" mask="url(#mask-0o933dfuv6-2)" x="610.680004" y="190.0025" width="50.68" height="50.69"></rect>
            <path d="M610.680003,190.0025 C610.677352,203.443672 616.014293,216.335382 625.516761,225.841601 C635.019229,235.34782 647.908832,240.689848 661.350004,240.6925 L661.350004,190.0025 L610.680003,190.0025 Z" id="Path" fill="#29282E" fill-rule="nonzero" mask="url(#mask-0o933dfuv6-2)"></path>
            <rect id="Rectangle" fill="#2E2D32" fill-rule="nonzero" mask="url(#mask-0o933dfuv6-2)" x="509.320004" y="190.0025" width="50.68" height="50.69"></rect>
            <path d="M509.320003,190.0025 C509.317351,203.445404 514.655665,216.33863 524.160296,225.845136 C533.664927,235.351643 546.557099,240.6925 560.000004,240.6925 L560.000004,190.0025 L509.320003,190.0025 Z" id="Path" fill="#383642" fill-rule="nonzero" mask="url(#mask-0o933dfuv6-2)"></path>
            <rect id="Rectangle" fill="#3D3B46" fill-rule="nonzero" mask="url(#mask-0o933dfuv6-2)" x="509.320004" y="139.3125" width="50.68" height="50.69"></rect>
            <path d="M509.320003,139.3125 C509.317351,152.755404 514.655665,165.64863 524.160296,175.155136 C533.664927,184.661643 546.557099,190.0025 560.000004,190.0025 L560.000004,139.3125 L509.320003,139.3125 Z" id="Path" fill="#39383E" fill-rule="nonzero" mask="url(#mask-0o933dfuv6-2)"></path>
            <rect id="Rectangle" fill="#383642" fill-rule="nonzero" mask="url(#mask-0o933dfuv6-2)" x="509.320004" y="88.6225" width="50.68" height="50.69"></rect>
            <path d="M509.320003,88.6225 C509.317351,102.065404 514.655665,114.95863 524.160296,124.465136 C533.664927,133.971643 546.557099,139.3125 560.000004,139.3125 L560.000004,88.6225 L509.320003,88.6225 Z" id="Path" fill="#29282E" fill-rule="nonzero" mask="url(#mask-0o933dfuv6-2)"></path>
            <rect id="Rectangle" fill="#3D3B46" fill-rule="nonzero" mask="url(#mask-0o933dfuv6-2)" x="509.320004" y="-12.7575" width="50.68" height="50.69"></rect>
            <path d="M509.320004,37.9325 L560.000004,37.9325 C560.000004,23.9376044 548.6549,12.5925 534.660004,12.5925 C520.665108,12.5925 509.320004,23.9376044 509.320004,37.9325 L509.320004,37.9325 Z" id="Path" fill="#29282E" fill-rule="nonzero" mask="url(#mask-0o933dfuv6-2)"></path>
            <path d="M534.660004,12.582502 C541.381403,12.5851541 547.828273,9.91626402 552.581021,5.16351674 C557.333768,0.410769463 560.002658,-6.03610086 560.000006,-12.7575 L509.320004,-12.7575 C509.320004,1.23739556 520.665108,12.582502 534.660004,12.582502 L534.660004,12.582502 Z" id="Path" fill="#29282E" fill-rule="nonzero" mask="url(#mask-0o933dfuv6-2)"></path>
            <rect id="Rectangle" fill="#3D3B46" fill-rule="nonzero" mask="url(#mask-0o933dfuv6-2)" x="560.000004" y="37.9325" width="50.68" height="50.69"></rect>
            <path d="M610.680004,63.2725 C610.674485,49.279891 599.332613,37.9380187 585.340004,37.9325 L560.000002,37.9325 L560.000002,63.2725 C559.997351,69.9948183 562.665922,76.4427158 567.418382,81.1970507 C572.170841,85.9513855 578.617685,88.6225 585.340004,88.6225 L610.680004,88.6225 L610.680004,63.2725 Z" id="Path" fill="#29282E" fill-rule="nonzero" mask="url(#mask-0o933dfuv6-2)"></path>
            <rect id="Rectangle" fill="#39383E" fill-rule="nonzero" mask="url(#mask-0o933dfuv6-2)" x="560.000004" y="-12.7575" width="50.68" height="50.69"></rect>
            <circle id="Oval" fill="#383642" fill-rule="nonzero" mask="url(#mask-0o933dfuv6-2)" cx="598.010004" cy="25.2625" r="12.67"></circle>
            <circle id="Oval" fill="#383642" fill-rule="nonzero" mask="url(#mask-0o933dfuv6-2)" cx="572.670004" cy="25.2625" r="12.67"></circle>
            <circle id="Oval" fill="#383642" fill-rule="nonzero" mask="url(#mask-0o933dfuv6-2)" cx="598.010004" cy="-0.0875" r="12.67"></circle>
            <circle id="Oval" fill="#383642" fill-rule="nonzero" mask="url(#mask-0o933dfuv6-2)" cx="572.670004" cy="-0.0875" r="12.67"></circle>
            <rect id="Rectangle" fill="#2E2D32" fill-rule="nonzero" mask="url(#mask-0o933dfuv6-2)" x="560.000004" y="88.6225" width="101.35" height="101.38"></rect>
            <rect id="Rectangle" fill="#383642" fill-rule="nonzero" mask="url(#mask-0o933dfuv6-2)" x="661.350004" y="139.3125" width="50.68" height="50.69"></rect>
            <path d="M686.690004,190.0025 L712.000006,190.0025 L712.000006,164.6625 C712.00553,178.64797 700.675471,189.991458 686.690004,190.0025 Z" id="Path" fill="#29282E" fill-rule="nonzero" mask="url(#mask-0o933dfuv6-2)"></path>
            <path d="M712.000006,164.6625 L712.000006,139.3125 L686.690004,139.3125 C700.677088,139.329058 712.005534,150.675408 712.000006,164.6625 Z" id="Path" fill="#29282E" fill-rule="nonzero" mask="url(#mask-0o933dfuv6-2)"></path>
            <path d="M674.00002,164.6625 C673.989009,157.679036 668.333457,152.019014 661.350004,152.0025 L661.350004,177.3525 C664.710298,177.3472 667.930858,176.007243 670.303194,173.627405 C672.67553,171.247568 674.005313,168.022794 674.00002,164.6625 Z" id="Path" fill="#29282E" fill-rule="nonzero" mask="url(#mask-0o933dfuv6-2)"></path>
            <path d="M686.690004,164.6625 C686.692658,171.383899 684.023768,177.830769 679.271021,182.583517 C674.518273,187.336264 668.071403,190.005154 661.350004,190.002502 L686.690004,190.002502 L686.690004,177.3325 C693.551603,177.13975 699.013949,171.521805 699.013949,164.6575 C699.013949,157.793195 693.551603,152.17525 686.690004,151.9825 L686.690004,139.3125 L661.350004,139.3125 C668.072323,139.3125 674.519167,141.983614 679.271626,146.737949 C684.024086,151.492284 686.692657,157.940182 686.690004,164.6625 Z" id="Path" fill="#29282E" fill-rule="nonzero" mask="url(#mask-0o933dfuv6-2)"></path>
            <path d="M610.680004,37.9325 L610.680004,41.7425 L708.220004,41.7425 L708.220004,139.3125 L712.000004,139.3125 L712.000004,37.9325 L610.680004,37.9325 Z M610.680004,47.6925 L610.680004,51.4925 L698.470004,51.4925 L698.470004,139.3125 L702.270004,139.3125 L702.270004,47.6925 L610.680004,47.6925 Z M610.680004,57.4425 L610.680004,61.2525 L688.680004,61.2525 L688.680004,139.3125 L692.490004,139.3125 L692.490004,57.4425 L610.680004,57.4425 Z M610.680004,67.2025 L610.680004,71.0025 L679.000004,71.0025 L679.000004,139.3025 L682.810004,139.3025 L682.810004,67.2025 L610.680004,67.2025 Z M610.680004,76.9625 L610.680004,80.7725 L669.200004,80.7725 L669.200004,139.3125 L673.000004,139.3125 L673.000004,77.0025 L610.680004,77.0025 L610.680004,76.9625 Z M610.680004,86.7225 L610.680004,90.5225 L659.450004,90.5225 L659.450004,139.3125 L663.260004,139.3125 L663.260004,86.7225 L610.680004,86.7225 L610.680004,86.7225 Z M610.680004,96.4725 L610.680004,100.2825 L649.680004,100.2825 L649.680004,139.2825 L653.480004,139.2825 L653.480004,96.4725 L610.680004,96.4725 L610.680004,96.4725 Z" id="Shape" fill="#39383E" fill-rule="nonzero" mask="url(#mask-0o933dfuv6-2)"></path>
            <rect id="Rectangle" fill="#383642" fill-rule="nonzero" mask="url(#mask-0o933dfuv6-2)" x="661.350004" y="190.0025" width="50.68" height="50.69"></rect>
            <polygon id="Path" fill="#29282E" fill-rule="nonzero" mask="url(#mask-0o933dfuv6-2)" points="661.350004 240.6925 712.030004 240.6925 686.690004 215.3525 712.030004 190.0025 661.350004 190.0025 686.690004 215.3525"></polygon>
            <rect id="Rectangle" fill="#39383E" fill-rule="nonzero" mask="url(#mask-0o933dfuv6-2)" x="712.030004" y="37.9325" width="50.68" height="50.69"></rect>
            <path d="M728.920004,54.8325 L728.920004,63.2725 L762.710004,63.2725 L762.710004,54.8325 L728.920004,54.8325 Z M728.920004,37.9325 L728.920004,46.3825 L762.710004,46.3825 L762.710004,37.9325 L728.920004,37.9325 Z M762.710004,71.7225 L728.920004,71.7225 L728.920004,80.1725 L762.710004,80.1725 L762.710004,71.7225 Z" id="Shape" fill="#3D3B46" fill-rule="nonzero" mask="url(#mask-0o933dfuv6-2)"></path>
            <path d="M712.000004,63.2725 L712.000004,71.7225 L728.890004,71.7225 L728.890004,63.2725 L712.000004,63.2725 Z M712.000004,46.3825 L712.000004,54.8325 L728.890004,54.8325 L728.890004,46.3825 L712.000004,46.3825 Z M728.890004,80.1725 L712.000004,80.1725 L712.000004,88.6225 L728.890004,88.6225 L728.890004,80.1725 Z" id="Shape" fill="#3D3B46" fill-rule="nonzero" mask="url(#mask-0o933dfuv6-2)"></path>
            <rect id="Rectangle" fill="#383642" fill-rule="nonzero" mask="url(#mask-0o933dfuv6-2)" x="712.030004" y="88.6225" width="50.68" height="50.69"></rect>
            <rect id="Rectangle" fill="#2E2D32" fill-rule="nonzero" mask="url(#mask-0o933dfuv6-2)" x="712.030004" y="116.3425" width="50.68" height="5.38"></rect>
            <rect id="Rectangle" fill="#2E2D32" fill-rule="nonzero" mask="url(#mask-0o933dfuv6-2)" x="712.030004" y="126.4825" width="50.68" height="5.38"></rect>
            <rect id="Rectangle" fill="#2E2D32" fill-rule="nonzero" mask="url(#mask-0o933dfuv6-2)" x="712.030004" y="136.6225" width="50.68" height="2.69"></rect>
            <rect id="Rectangle" fill="#2E2D32" fill-rule="nonzero" mask="url(#mask-0o933dfuv6-2)" x="712.030004" y="106.2125" width="50.68" height="5.38"></rect>
            <rect id="Rectangle" fill="#2E2D32" fill-rule="nonzero" mask="url(#mask-0o933dfuv6-2)" x="712.030004" y="88.6225" width="50.68" height="2.69"></rect>
            <rect id="Rectangle" fill="#2E2D32" fill-rule="nonzero" mask="url(#mask-0o933dfuv6-2)" x="712.030004" y="96.0725" width="50.68" height="5.38"></rect>
            <rect id="Rectangle" fill="#39383E" fill-rule="nonzero" mask="url(#mask-0o933dfuv6-2)" x="712.030004" y="190.0025" width="50.68" height="50.69"></rect>
            <polygon id="Path" fill="#383642" fill-rule="nonzero" mask="url(#mask-0o933dfuv6-2)" points="712.030004 217.7325 712.030004 223.1125 745.130004 223.1125 745.130004 190.0025 739.750004 190.0025 739.750004 217.7325"></polygon>
            <polygon id="Path" fill="#383642" fill-rule="nonzero" mask="url(#mask-0o933dfuv6-2)" points="712.030004 238.0025 712.030004 240.6925 762.710004 240.6925 762.710004 190.0025 760.010004 190.0025 760.010004 238.0025"></polygon>
            <polygon id="Path" fill="#383642" fill-rule="nonzero" mask="url(#mask-0o933dfuv6-2)" points="712.030004 227.8725 712.030004 233.2525 755.260004 233.2525 755.260004 190.0025 749.880004 190.0025 749.880004 227.8725"></polygon>
            <rect id="Rectangle" fill="#383642" fill-rule="nonzero" mask="url(#mask-0o933dfuv6-2)" x="712.030004" y="190.0025" width="2.69" height="2.69"></rect>
            <polygon id="Path" fill="#383642" fill-rule="nonzero" mask="url(#mask-0o933dfuv6-2)" points="712.030004 207.5925 712.030004 212.9725 734.990004 212.9725 734.990004 190.0025 729.610004 190.0025 729.610004 207.5925"></polygon>
            <polygon id="Path" fill="#383642" fill-rule="nonzero" mask="url(#mask-0o933dfuv6-2)" points="712.030004 197.4525 712.030004 202.8325 724.860004 202.8325 724.860004 190.0025 719.470004 190.0025 719.470004 197.4525"></polygon>
            <rect id="Rectangle" fill="#3D3B46" fill-rule="nonzero" mask="url(#mask-0o933dfuv6-2)" x="712.030004" y="139.3125" width="50.68" height="50.69"></rect>
            <polygon id="Path" fill="#29282E" fill-rule="nonzero" mask="url(#mask-0o933dfuv6-2)" points="734.990004 139.3125 729.610004 139.3125 729.610004 172.4225 762.710004 172.4225 762.710004 167.0425 734.990004 167.0425"></polygon>
            <polygon id="Path" fill="#29282E" fill-rule="nonzero" mask="url(#mask-0o933dfuv6-2)" points="714.720004 139.3125 712.030004 139.3125 712.030004 190.0025 762.710004 190.0025 762.710004 187.3125 714.720004 187.3125"></polygon>
            <polygon id="Path" fill="#29282E" fill-rule="nonzero" mask="url(#mask-0o933dfuv6-2)" points="724.860004 139.3125 719.470004 139.3125 719.470004 182.5625 762.710004 182.5625 762.710004 177.1725 724.860004 177.1725"></polygon>
            <rect id="Rectangle" fill="#29282E" fill-rule="nonzero" mask="url(#mask-0o933dfuv6-2)" x="760.020004" y="139.3125" width="2.69" height="2.69"></rect>
            <polygon id="Path" fill="#29282E" fill-rule="nonzero" mask="url(#mask-0o933dfuv6-2)" points="745.130004 139.3125 739.750004 139.3125 739.750004 162.2825 762.710004 162.2825 762.710004 156.9025 745.130004 156.9025"></polygon>
            <polygon id="Path" fill="#29282E" fill-rule="nonzero" mask="url(#mask-0o933dfuv6-2)" points="755.260004 139.3125 749.880004 139.3125 749.880004 152.1425 762.710004 152.1425 762.710004 146.7625 755.260004 146.7625"></polygon>
            <path d="M560.000003,139.3125 C560.005527,167.300989 582.69818,189.986181 610.686669,189.9825 C638.675158,189.978818 661.361843,167.287657 661.360003,139.299167 C661.358162,111.310678 638.668493,88.6225 610.680004,88.6225 C597.237099,88.6225 584.344927,93.9633571 574.840296,103.469864 C565.335665,112.97637 559.997351,125.869596 560.000003,139.3125 L560.000003,139.3125 Z M636.000022,139.3125 C636.01214,149.566114 629.843783,158.816466 620.373384,162.746897 C610.902985,166.677329 599.997312,164.51309 592.745475,157.264117 C585.493638,150.015144 583.325091,139.110326 587.251781,129.638376 C591.178472,120.166425 600.426386,113.994414 610.680004,114.002492 C624.653103,114.019019 635.977965,125.339409 636.000022,139.3125 Z" id="Shape" fill="#35333B" fill-rule="nonzero" mask="url(#mask-0o933dfuv6-2)"></path>
            <rect id="Rectangle" fill="#3D3B46" fill-rule="nonzero" mask="url(#mask-0o933dfuv6-2)" x="610.680004" y="-12.7575" width="50.68" height="50.69"></rect>
            <polygon id="Path" fill="#39383E" fill-rule="nonzero" mask="url(#mask-0o933dfuv6-2)" points="636.010004 -12.7575 610.680004 12.5825 636.010004 37.9325 636.010004 12.5825 661.350004 37.9325 661.350004 -12.7575 636.010004 12.5825"></polygon>
            <rect id="Rectangle" fill="#29282E" fill-rule="nonzero" mask="url(#mask-0o933dfuv6-2)" x="661.350004" y="-12.7575" width="50.68" height="50.69"></rect>
            <polygon id="Path" fill="#2E2D32" fill-rule="nonzero" mask="url(#mask-0o933dfuv6-2)" points="686.690004 -12.7575 661.350004 12.5825 686.690004 37.9325 686.690004 12.5825 712.030004 37.9325 712.030004 -12.7575 686.690004 12.5825"></polygon>
            <rect id="Rectangle" fill="#39383E" fill-rule="nonzero" mask="url(#mask-0o933dfuv6-2)" x="762.710004" y="286.0525" width="50.68" height="50.69"></rect>
            <ellipse id="Oval" fill="#383642" fill-rule="nonzero" mask="url(#mask-0o933dfuv6-2)" cx="788.040004" cy="311.3925" rx="25.34" ry="25.35"></ellipse>
            <rect id="Rectangle" fill="#2E2D32" fill-rule="nonzero" mask="url(#mask-0o933dfuv6-2)" x="762.710004" y="438.1225" width="50.68" height="50.69"></rect>
            <path d="M762.71,438.1225 C762.704698,451.564484 768.040787,464.457736 777.54383,473.96453 C787.046874,483.471325 799.938019,488.8125 813.380004,488.8125 L813.380004,438.1225 L762.71,438.1225 Z" id="Path" fill="#383642" fill-rule="nonzero" mask="url(#mask-0o933dfuv6-2)"></path>
            <rect id="Rectangle" fill="#3D3B46" fill-rule="nonzero" mask="url(#mask-0o933dfuv6-2)" x="762.710004" y="387.4325" width="50.68" height="50.69"></rect>
            <path d="M762.71,387.4325 C762.704698,400.874484 768.040787,413.767736 777.54383,423.27453 C787.046874,432.781325 799.938019,438.1225 813.380004,438.1225 L813.380004,387.4325 L762.71,387.4325 Z" id="Path" fill="#39383E" fill-rule="nonzero" mask="url(#mask-0o933dfuv6-2)"></path>
            <rect id="Rectangle" fill="#383642" fill-rule="nonzero" mask="url(#mask-0o933dfuv6-2)" x="762.710004" y="336.7425" width="50.68" height="50.69"></rect>
            <path d="M762.71,336.7425 C762.704698,350.184484 768.040787,363.077736 777.54383,372.58453 C787.046874,382.091325 799.938019,387.4325 813.380004,387.4325 L813.380004,336.7425 L762.71,336.7425 Z" id="Path" fill="#29282E" fill-rule="nonzero" mask="url(#mask-0o933dfuv6-2)"></path>
            <rect id="Rectangle" fill="#3D3B46" fill-rule="nonzero" mask="url(#mask-0o933dfuv6-2)" x="762.710004" y="235.3625" width="50.68" height="50.69"></rect>
            <path d="M762.710004,286.0525 L813.380004,286.0525 C813.562222,276.881195 808.773648,268.327494 800.860043,263.688433 C792.946439,259.049371 783.143569,259.049371 775.229965,263.688433 C767.31636,268.327494 762.527786,276.881195 762.710004,286.0525 L762.710004,286.0525 Z" id="Path" fill="#29282E" fill-rule="nonzero" mask="url(#mask-0o933dfuv6-2)"></path>
            <path d="M788.000004,260.7025 C801.9949,260.7025 813.340004,249.357396 813.340004,235.3625 L762.710004,235.3625 C762.710004,249.337893 774.024639,260.674924 788.000004,260.7025 Z" id="Path" fill="#29282E" fill-rule="nonzero" mask="url(#mask-0o933dfuv6-2)"></path>
            <rect id="Rectangle" fill="#3D3B46" fill-rule="nonzero" mask="url(#mask-0o933dfuv6-2)" x="813.380004" y="286.0525" width="50.68" height="50.69"></rect>
            <path d="M864.060004,311.3925 C864.054485,297.399891 852.712613,286.058019 838.720004,286.0525 L813.380004,286.0525 L813.380004,311.3925 C813.380004,325.389014 824.723491,336.736979 838.720004,336.7425 L864.060004,336.7425 L864.060004,311.3925 Z" id="Path" fill="#29282E" fill-rule="nonzero" mask="url(#mask-0o933dfuv6-2)"></path>
            <rect id="Rectangle" fill="#39383E" fill-rule="nonzero" mask="url(#mask-0o933dfuv6-2)" x="813.380004" y="235.3625" width="50.68" height="50.69"></rect>
            <circle id="Oval" fill="#383642" fill-rule="nonzero" mask="url(#mask-0o933dfuv6-2)" cx="826.050004" cy="273.3825" r="12.67"></circle>
            <circle id="Oval" fill="#383642" fill-rule="nonzero" mask="url(#mask-0o933dfuv6-2)" cx="826.050004" cy="248.0325" r="12.67"></circle>
            <rect id="Rectangle" fill="#2E2D32" fill-rule="nonzero" mask="url(#mask-0o933dfuv6-2)" x="813.380004" y="336.7425" width="101.35" height="101.38"></rect>
            <path d="M813.380003,387.4325 C813.385527,415.420989 836.07818,438.106181 864.066669,438.1025 C892.055158,438.098818 914.741843,415.407657 914.740003,387.419167 C914.738162,359.430678 892.048493,336.7425 864.060004,336.7425 C850.617099,336.7425 837.724927,342.083357 828.220296,351.589864 C818.715665,361.09637 813.377351,373.989596 813.380003,387.4325 L813.380003,387.4325 Z M889.380004,387.4325 C889.380004,401.427396 878.0349,412.7725 864.040004,412.7725 C850.045108,412.7725 838.700004,401.427396 838.700004,387.4325 C838.700004,373.437604 850.045108,362.092498 864.040004,362.092498 C870.763242,362.089847 877.212168,364.7581 881.96809,369.510271 C886.724013,374.262443 889.397352,380.709262 889.400004,387.4325 L889.380004,387.4325 Z" id="Shape" fill="#35333B" fill-rule="nonzero" mask="url(#mask-0o933dfuv6-2)"></path>
            <rect id="Rectangle" fill="#39383E" fill-rule="nonzero" mask="url(#mask-0o933dfuv6-2)" x="762.710004" y="37.9325" width="50.68" height="50.69"></rect>
            <ellipse id="Oval" fill="#383642" fill-rule="nonzero" mask="url(#mask-0o933dfuv6-2)" cx="788.040004" cy="63.2725" rx="25.34" ry="25.35"></ellipse>
            <rect id="Rectangle" fill="#2E2D32" fill-rule="nonzero" mask="url(#mask-0o933dfuv6-2)" x="762.710004" y="190.0025" width="50.68" height="50.69"></rect>
            <path d="M762.71,190.0025 C762.704698,203.444484 768.040787,216.337736 777.54383,225.84453 C787.046874,235.351325 799.938019,240.6925 813.380004,240.6925 L813.380004,190.0025 L762.71,190.0025 Z" id="Path" fill="#383642" fill-rule="nonzero" mask="url(#mask-0o933dfuv6-2)"></path>
            <rect id="Rectangle" fill="#3D3B46" fill-rule="nonzero" mask="url(#mask-0o933dfuv6-2)" x="762.710004" y="139.3125" width="50.68" height="50.69"></rect>
            <path d="M762.71,139.3125 C762.704698,152.754484 768.040787,165.647736 777.54383,175.15453 C787.046874,184.661325 799.938019,190.0025 813.380004,190.0025 L813.380004,139.3125 L762.71,139.3125 Z" id="Path" fill="#39383E" fill-rule="nonzero" mask="url(#mask-0o933dfuv6-2)"></path>
            <rect id="Rectangle" fill="#383642" fill-rule="nonzero" mask="url(#mask-0o933dfuv6-2)" x="762.710004" y="88.6225" width="50.68" height="50.69"></rect>
            <path d="M762.71,88.6225 C762.704698,102.064484 768.040787,114.957736 777.54383,124.46453 C787.046874,133.971325 799.938019,139.3125 813.380004,139.3125 L813.380004,88.6225 L762.71,88.6225 Z" id="Path" fill="#29282E" fill-rule="nonzero" mask="url(#mask-0o933dfuv6-2)"></path>
            <rect id="Rectangle" fill="#3D3B46" fill-rule="nonzero" mask="url(#mask-0o933dfuv6-2)" x="762.710004" y="-12.7575" width="50.68" height="50.69"></rect>
            <path d="M762.710004,37.9325 L813.380004,37.9325 C813.562222,28.7611955 808.773648,20.2074943 800.860043,15.5684326 C792.946439,10.9293709 783.143569,10.9293709 775.229965,15.5684326 C767.31636,20.2074943 762.527786,28.7611955 762.710004,37.9325 L762.710004,37.9325 Z" id="Path" fill="#29282E" fill-rule="nonzero" mask="url(#mask-0o933dfuv6-2)"></path>
            <path d="M788.000004,12.582502 C794.721403,12.5851541 801.168273,9.91626402 805.921021,5.16351674 C810.673768,0.410769463 813.342658,-6.03610086 813.340006,-12.7575 L762.710002,-12.7575 C762.704468,1.22017042 774.02235,12.5604282 788.000004,12.582502 L788.000004,12.582502 Z" id="Path" fill="#29282E" fill-rule="nonzero" mask="url(#mask-0o933dfuv6-2)"></path>
            <rect id="Rectangle" fill="#3D3B46" fill-rule="nonzero" mask="url(#mask-0o933dfuv6-2)" x="813.380004" y="37.9325" width="50.68" height="50.69"></rect>
            <path d="M864.060004,63.2725 C864.054485,49.279891 852.712613,37.9380187 838.720004,37.9325 L813.380004,37.9325 L813.380004,63.2725 C813.380004,77.2690141 824.723491,88.6169787 838.720004,88.6225 L864.060004,88.6225 L864.060004,63.2725 Z" id="Path" fill="#29282E" fill-rule="nonzero" mask="url(#mask-0o933dfuv6-2)"></path>
            <rect id="Rectangle" fill="#39383E" fill-rule="nonzero" mask="url(#mask-0o933dfuv6-2)" x="813.380004" y="-12.7575" width="50.68" height="50.69"></rect>
            <circle id="Oval" fill="#383642" fill-rule="nonzero" mask="url(#mask-0o933dfuv6-2)" cx="826.050004" cy="25.2625" r="12.67"></circle>
            <circle id="Oval" fill="#383642" fill-rule="nonzero" mask="url(#mask-0o933dfuv6-2)" cx="826.050004" cy="-0.0875" r="12.67"></circle>
            <rect id="Rectangle" fill="#2E2D32" fill-rule="nonzero" mask="url(#mask-0o933dfuv6-2)" x="813.380004" y="88.6225" width="101.35" height="101.38"></rect>
            <path d="M813.380003,139.3125 C813.385527,167.300989 836.07818,189.986181 864.066669,189.9825 C892.055158,189.978818 914.741843,167.287657 914.740003,139.299167 C914.738162,111.310678 892.048493,88.6225 864.060004,88.6225 C850.617099,88.6225 837.724927,93.9633571 828.220296,103.469864 C818.715665,112.97637 813.377351,125.869596 813.380003,139.3125 L813.380003,139.3125 Z M889.380004,139.3125 C889.39214,149.566114 883.223783,158.816466 873.753384,162.746897 C864.282985,166.677329 853.377312,164.51309 846.125475,157.264117 C838.873638,150.015144 836.705091,139.110326 840.631781,129.638376 C844.558472,120.166425 853.806386,113.994414 864.060004,114.002492 C878.040912,114.007998 889.377944,125.331608 889.400004,139.3125 L889.380004,139.3125 Z" id="Shape" fill="#35333B" fill-rule="nonzero" mask="url(#mask-0o933dfuv6-2)"></path>
            <polygon id="Path" fill="#2E2D32" fill-rule="nonzero" mask="url(#mask-0o933dfuv6-2)" points="512.100004 241.4125 612.340004 241.4125 612.340004 291.5325 512.100004 291.5325"></polygon>
            <path d="M524.780004,276.5725 C527.098632,274.583734 530.521376,274.583734 532.840004,276.5725 L536.100004,279.3725 C541.508756,284.040525 549.521252,284.040525 554.930004,279.3725 L558.190004,276.5825 C560.503882,274.58094 563.936126,274.58094 566.250004,276.5825 L569.510004,279.3725 C574.922001,284.042 582.938007,284.042 588.350004,279.3725 L591.610004,276.5825 C593.923882,274.58094 597.356126,274.58094 599.670004,276.5825 L602.930004,279.3725 C605.547525,281.626366 608.885831,282.868031 612.340004,282.8725 L612.340004,274.5825 C610.870914,274.573018 609.453087,274.041333 608.340004,273.0825 L605.080004,270.2825 C599.674445,265.605899 591.655563,265.605899 586.250004,270.2825 L583.000004,273.0825 C580.686126,275.08406 577.253882,275.08406 574.940004,273.0825 L571.680004,270.2825 C566.271252,265.614475 558.258756,265.614475 552.850004,270.2825 L549.590004,273.0825 C547.276126,275.08406 543.843882,275.08406 541.530004,273.0825 L538.270004,270.2825 C532.858007,265.613 524.842001,265.613 519.430004,270.2825 L516.170004,273.0825 C515.056921,274.041333 513.639094,274.573018 512.170004,274.5825 L512.170004,282.8725 C515.627299,282.868651 518.968959,281.627057 521.590004,279.3725 L524.780004,276.5725 Z" id="Path" fill="#3D3C43" fill-rule="nonzero" mask="url(#mask-0o933dfuv6-2)"></path>
            <path d="M524.780004,293.2825 C527.093882,291.28094 530.526126,291.28094 532.840004,293.2825 L536.100004,296.0725 C541.50396,300.753403 549.526048,300.753403 554.930004,296.0725 L558.190004,293.2825 C560.503882,291.28094 563.936126,291.28094 566.250004,293.2825 L569.510004,296.0725 C574.918812,300.750572 582.941196,300.750572 588.350004,296.0725 L591.610004,293.2825 C593.923882,291.28094 597.356126,291.28094 599.670004,293.2825 L602.930004,296.0725 C605.543796,298.33387 608.883749,299.579697 612.340004,299.5825 L612.340004,291.2825 C610.870914,291.273018 609.453087,290.741333 608.340004,289.7825 L605.050004,287.0025 C599.641252,282.334475 591.628756,282.334475 586.220004,287.0025 L583.000004,289.7825 C580.686126,291.78406 577.253882,291.78406 574.940004,289.7825 L571.640004,287.0025 C566.231252,282.334475 558.218756,282.334475 552.810004,287.0025 L549.550004,289.7925 C547.236126,291.79406 543.803882,291.79406 541.490004,289.7925 L538.230004,287.0025 C532.818007,282.333 524.802001,282.333 519.390004,287.0025 L516.130004,289.7925 C515.016921,290.751333 513.599094,291.283018 512.130004,291.2925 L512.130004,299.5925 C515.589217,299.58942 518.932221,298.343778 521.550004,296.0825 L524.780004,293.2825 Z" id="Path" fill="#3D3C43" fill-rule="nonzero" mask="url(#mask-0o933dfuv6-2)"></path>
            <path d="M524.780004,243.1625 C527.093882,241.16094 530.526126,241.16094 532.840004,243.1625 L536.100004,246.0025 C541.50396,250.683403 549.526048,250.683403 554.930004,246.0025 L558.190004,243.2125 C560.503882,241.21094 563.936126,241.21094 566.250004,243.2125 L569.510004,246.0025 C574.922001,250.672 582.938007,250.672 588.350004,246.0025 L591.610004,243.2125 C593.923882,241.21094 597.356126,241.21094 599.670004,243.2125 L602.930004,246.0025 C605.543796,248.26387 608.883749,249.509697 612.340004,249.5125 L612.340004,241.4625 L512.100004,241.4625 L512.100004,249.5125 C515.559217,249.50942 518.902221,248.263778 521.520004,246.0025 L524.780004,243.1625 Z" id="Path" fill="#3D3C43" fill-rule="nonzero" mask="url(#mask-0o933dfuv6-2)"></path>
            <path d="M524.780004,259.8725 C527.093882,257.87094 530.526126,257.87094 532.840004,259.8725 L536.100004,262.6625 C541.508756,267.330525 549.521252,267.330525 554.930004,262.6625 L558.190004,259.8725 C560.503882,257.87094 563.936126,257.87094 566.250004,259.8725 L569.510004,262.6625 C574.922001,267.332 582.938007,267.332 588.350004,262.6625 L591.610004,259.8725 C593.923882,257.87094 597.356126,257.87094 599.670004,259.8725 L602.930004,262.6625 C605.544766,264.921035 608.884869,266.163369 612.340004,266.1625 L612.340004,257.8725 C610.870914,257.863018 609.453087,257.331333 608.340004,256.3725 L605.080004,253.5825 C599.671252,248.914475 591.658756,248.914475 586.250004,253.5825 L583.000004,256.3725 C580.686126,258.37406 577.253882,258.37406 574.940004,256.3725 L571.680004,253.5825 C566.271252,248.914475 558.258756,248.914475 552.850004,253.5825 L549.590004,256.3725 C547.276126,258.37406 543.843882,258.37406 541.530004,256.3725 L538.270004,253.5825 C532.858007,248.913 524.842001,248.913 519.430004,253.5825 L516.170004,256.3725 C515.056921,257.331333 513.639094,257.863018 512.170004,257.8725 L512.170004,266.1625 C515.628099,266.163091 518.971253,264.920942 521.590004,262.6625 L524.780004,259.8725 Z" id="Path" fill="#3D3C43" fill-rule="nonzero" mask="url(#mask-0o933dfuv6-2)"></path>
            <rect id="Rectangle" fill="#3D3C43" fill-rule="nonzero" mask="url(#mask-0o933dfuv6-2)" x="712.590004" y="241.4125" width="50.12" height="50.12"></rect>
            <polygon id="Path" fill="#2E2C39" fill-rule="nonzero" mask="url(#mask-0o933dfuv6-2)" points="762.710004 266.4725 737.650004 266.4725 737.650004 241.4125"></polygon>
            <polygon id="Path" fill="#2E2C39" fill-rule="nonzero" mask="url(#mask-0o933dfuv6-2)" points="737.650004 266.4725 712.590004 266.4725 712.590004 241.4125"></polygon>
            <polygon id="Path" fill="#2E2C39" fill-rule="nonzero" mask="url(#mask-0o933dfuv6-2)" points="762.710004 291.5325 737.650004 291.5325 737.650004 266.4725"></polygon>
            <polygon id="Path" fill="#2E2C39" fill-rule="nonzero" mask="url(#mask-0o933dfuv6-2)" points="737.650004 291.5325 712.590004 291.5325 712.590004 266.4725"></polygon>
            <rect id="Rectangle" fill="#3D3C43" fill-rule="nonzero" mask="url(#mask-0o933dfuv6-2)" x="662.460004" y="241.4125" width="50.12" height="50.12"></rect>
            <polygon id="Path" fill="#2E2C39" fill-rule="nonzero" mask="url(#mask-0o933dfuv6-2)" points="712.590004 266.4725 687.520004 266.4725 687.520004 241.4125"></polygon>
            <polygon id="Path" fill="#2E2C39" fill-rule="nonzero" mask="url(#mask-0o933dfuv6-2)" points="687.520004 266.4725 662.460004 266.4725 662.460004 241.4125"></polygon>
            <polygon id="Path" fill="#2E2C39" fill-rule="nonzero" mask="url(#mask-0o933dfuv6-2)" points="712.590004 291.5325 687.520004 291.5325 687.520004 266.4725"></polygon>
            <polygon id="Path" fill="#2E2C39" fill-rule="nonzero" mask="url(#mask-0o933dfuv6-2)" points="687.520004 291.5325 662.460004 291.5325 662.460004 266.4725"></polygon>
            <rect id="Rectangle" fill="#2E2D32" fill-rule="nonzero" mask="url(#mask-0o933dfuv6-2)" x="662.460004" y="291.5325" width="100.24" height="100.24"></rect>
            <rect id="Rectangle" fill="#35333B" fill-rule="nonzero" mask="url(#mask-0o933dfuv6-2)" transform="translate(712.583186, 341.655382) rotate(-45.000000) translate(-712.583186, -341.655382) " x="677.143186" y="306.215382" width="70.88" height="70.88"></rect>
            <rect id="Rectangle" fill="#3D3B46" fill-rule="nonzero" mask="url(#mask-0o933dfuv6-2)" x="662.460004" y="441.9025" width="50.12" height="50.12"></rect>
            <rect id="Rectangle" fill="#35333B" fill-rule="nonzero" mask="url(#mask-0o933dfuv6-2)" x="700.050004" y="466.9625" width="12.53" height="25.06"></rect>
            <rect id="Rectangle" fill="#35333B" fill-rule="nonzero" mask="url(#mask-0o933dfuv6-2)" x="674.990004" y="466.9625" width="12.53" height="25.06"></rect>
            <rect id="Rectangle" fill="#35333B" fill-rule="nonzero" mask="url(#mask-0o933dfuv6-2)" x="687.520004" y="441.9025" width="12.53" height="25.06"></rect>
            <rect id="Rectangle" fill="#35333B" fill-rule="nonzero" mask="url(#mask-0o933dfuv6-2)" x="662.460004" y="441.9025" width="12.53" height="25.06"></rect>
            <rect id="Rectangle" fill="#2E2C39" fill-rule="nonzero" mask="url(#mask-0o933dfuv6-2)" x="562.220004" y="291.5325" width="50.12" height="50.12"></rect>
            <rect id="Rectangle" fill="#3D3B46" fill-rule="nonzero" mask="url(#mask-0o933dfuv6-2)" x="599.810004" y="291.5325" width="12.53" height="25.06"></rect>
            <rect id="Rectangle" fill="#3D3B46" fill-rule="nonzero" mask="url(#mask-0o933dfuv6-2)" x="574.750004" y="291.5325" width="12.53" height="25.06"></rect>
            <rect id="Rectangle" fill="#3D3B46" fill-rule="nonzero" mask="url(#mask-0o933dfuv6-2)" x="587.280004" y="316.5925" width="12.53" height="25.06"></rect>
            <rect id="Rectangle" fill="#3D3B46" fill-rule="nonzero" mask="url(#mask-0o933dfuv6-2)" x="562.220004" y="316.5925" width="12.53" height="25.06"></rect>
            <rect id="Rectangle" fill="#3D3C43" fill-rule="nonzero" mask="url(#mask-0o933dfuv6-2)" x="612.340004" y="291.5325" width="50.12" height="50.12"></rect>
            <path d="M645.760004,316.5925 L637.400004,316.5925 L637.400004,341.6525 L645.760004,341.6525 L645.760004,316.5925 Z M662.460004,316.5925 L654.110004,316.5925 L654.110004,341.6525 L662.460004,341.6525 L662.460004,316.5925 Z M629.050004,341.6525 L629.050004,316.5925 L620.700004,316.5925 L620.700004,341.6525 L629.050004,341.6525 Z" id="Shape" fill="#2E2C39" fill-rule="nonzero" mask="url(#mask-0o933dfuv6-2)"></path>
            <path d="M637.400004,291.5325 L629.050004,291.5325 L629.050004,316.5925 L637.400004,316.5925 L637.400004,291.5325 Z M654.110004,291.5325 L645.760004,291.5325 L645.760004,316.5925 L654.110004,316.5925 L654.110004,291.5325 Z M620.700004,316.5925 L620.700004,291.5325 L612.340004,291.5325 L612.340004,316.5925 L620.700004,316.5925 Z" id="Shape" fill="#2E2C39" fill-rule="nonzero" mask="url(#mask-0o933dfuv6-2)"></path>
            <rect id="Rectangle" fill="#2E2C39" fill-rule="nonzero" mask="url(#mask-0o933dfuv6-2)" x="612.340004" y="341.6525" width="50.12" height="50.12"></rect>
            <path d="M629.050004,391.7725 L637.400004,391.7725 L637.400004,358.3625 L629.050004,358.3625 L629.050004,391.7725 Z M612.340004,391.7725 L620.700004,391.7725 L620.700004,358.3625 L612.340004,358.3625 L612.340004,391.7725 Z M654.110004,391.7725 L654.110004,358.3625 L645.760004,358.3625 L645.760004,391.7725 L654.110004,391.7725 Z" id="Shape" fill="#29282E" fill-rule="nonzero" mask="url(#mask-0o933dfuv6-2)"></path>
            <path d="M637.400004,358.3625 L645.760004,358.3625 L645.760004,341.6525 L637.400004,341.6525 L637.400004,358.3625 Z M620.700004,358.3625 L629.050004,358.3625 L629.050004,341.6525 L620.700004,341.6525 L620.700004,358.3625 Z M662.460004,358.3625 L662.460004,341.6525 L654.110004,341.6525 L654.110004,358.3625 L662.460004,358.3625 Z" id="Shape" fill="#29282E" fill-rule="nonzero" mask="url(#mask-0o933dfuv6-2)"></path>
            <rect id="Rectangle" fill="#3D3B46" fill-rule="nonzero" mask="url(#mask-0o933dfuv6-2)" x="712.590004" y="391.7725" width="50.12" height="50.12"></rect>
            <path d="M762.710004,416.8325 L762.710004,391.7725 L737.650004,391.7725 C751.49026,391.7725 762.710004,402.992244 762.710004,416.8325 Z" id="Path" fill="#29282E" fill-rule="nonzero" mask="url(#mask-0o933dfuv6-2)"></path>
            <path d="M737.650004,441.9025 L762.710006,441.9025 L762.710006,416.8325 C762.712657,423.480558 760.073586,429.857236 755.373636,434.559061 C750.673687,439.260885 744.298062,441.9025 737.650004,441.9025 L737.650004,441.9025 Z" id="Path" fill="#29282E" fill-rule="nonzero" mask="url(#mask-0o933dfuv6-2)"></path>
            <path d="M737.650004,391.7725 L712.590004,391.7725 L712.590004,416.8325 C712.590004,402.992244 723.809748,391.7725 737.650004,391.7725 Z" id="Path" fill="#29282E" fill-rule="nonzero" mask="url(#mask-0o933dfuv6-2)"></path>
            <path d="M737.650004,441.9025 C731.001946,441.9025 724.626321,439.260885 719.926372,434.559061 C715.226422,429.857236 712.587351,423.480558 712.590002,416.8325 L712.590002,441.9025 L737.650004,441.9025 Z" id="Path" fill="#29282E" fill-rule="nonzero" mask="url(#mask-0o933dfuv6-2)"></path>
            <rect id="Rectangle" fill="#2E2C39" fill-rule="nonzero" mask="url(#mask-0o933dfuv6-2)" x="512.100004" y="441.9025" width="50.12" height="50.12"></rect>
            <path d="M537.160004,492.0025 C547.301282,492.0025 556.44284,485.890286 560.31811,476.518637 C564.19338,467.146989 562.038333,456.363544 554.858777,449.201178 C547.679221,442.038812 536.890642,439.90962 527.52831,443.807344 C518.165978,447.705068 512.075723,456.861251 512.099932,467.0025 C512.133085,480.819319 523.343146,492.0025 537.160004,492.0025 L537.160004,492.0025 Z M537.160004,454.4125 C544.072304,454.4125 549.678864,460.010304 549.689861,466.922596 C549.700825,473.834887 544.112077,479.450396 537.199813,479.472501 C530.287548,479.494476 524.663104,473.914721 524.62994,467.0025 C524.619373,463.672412 525.9348,460.475072 528.285784,458.116583 C530.636768,455.758094 533.829899,454.432483 537.160004,454.4325 L537.160004,454.4125 Z" id="Shape" fill="#35333B" fill-rule="nonzero" mask="url(#mask-0o933dfuv6-2)"></path>
            <rect id="Rectangle" fill="#3D3C43" fill-rule="nonzero" mask="url(#mask-0o933dfuv6-2)" x="512.100004" y="391.7725" width="50.12" height="50.12"></rect>
            <path d="M562.220004,441.9025 L562.220004,391.7725 L512.100004,391.7725 L512.100004,441.9025 L562.220004,441.9025 Z M525.000004,404.7125 L549.240004,404.7125 L549.240004,429.0025 L525.000004,429.0025 L525.000004,404.7125 Z" id="Shape" fill="#35333B" fill-rule="nonzero" mask="url(#mask-0o933dfuv6-2)"></path>
            <rect id="Rectangle" fill="#3D3C43" fill-rule="nonzero" mask="url(#mask-0o933dfuv6-2)" x="712.590004" y="441.9025" width="50.12" height="50.12"></rect>
            <polygon id="Path" fill="#29282E" fill-rule="nonzero" mask="url(#mask-0o933dfuv6-2)" points="712.590004 473.2225 731.380004 473.2225 731.380004 492.0225 743.910004 492.0225 743.910004 473.2225 762.710004 473.2225 762.710004 460.6925 743.910004 460.6925 743.910004 441.8925 731.380004 441.8925 731.380004 460.6925 712.590004 460.6925"></polygon>
            <rect id="Rectangle" fill="#29282E" fill-rule="nonzero" mask="url(#mask-0o933dfuv6-2)" x="512.100004" y="291.5325" width="50.12" height="50.12"></rect>
            <polygon id="Path" fill="#35333B" fill-rule="nonzero" mask="url(#mask-0o933dfuv6-2)" points="512.100004 341.6525 520.960004 341.6525 537.160004 325.4525 553.360004 341.6525 562.220004 341.6525 562.220004 332.7925 546.020004 316.5925 562.220004 300.3925 562.220004 291.5325 553.360004 291.5325 537.160004 307.7325 520.960004 291.5325 512.100004 291.5325 512.100004 300.3925 528.300004 316.5925 512.100004 332.7925"></polygon>
            <rect id="Rectangle" fill="#35333B" fill-rule="nonzero" mask="url(#mask-0o933dfuv6-2)" x="662.460004" y="391.7725" width="50.12" height="50.12"></rect>
            <polygon id="Path" fill="#29282E" fill-rule="nonzero" mask="url(#mask-0o933dfuv6-2)" points="712.590004 433.0425 712.590004 400.6325 696.380004 416.8325"></polygon>
            <polygon id="Path" fill="#29282E" fill-rule="nonzero" mask="url(#mask-0o933dfuv6-2)" points="671.330004 441.8925 703.730004 441.8925 687.520004 425.6925"></polygon>
            <polygon id="Path" fill="#29282E" fill-rule="nonzero" mask="url(#mask-0o933dfuv6-2)" points="662.460004 400.6325 662.460004 433.0425 678.660004 416.8325"></polygon>
            <polygon id="Path" fill="#29282E" fill-rule="nonzero" mask="url(#mask-0o933dfuv6-2)" points="703.730004 391.7725 671.330004 391.7725 687.520004 407.9825"></polygon>
            <rect id="Rectangle" fill="#3D3C43" fill-rule="nonzero" mask="url(#mask-0o933dfuv6-2)" x="562.220004" y="341.6525" width="50.12" height="50.12"></rect>
            <polygon id="Path" fill="#35333B" fill-rule="nonzero" mask="url(#mask-0o933dfuv6-2)" points="562.220004 375.0725 578.930004 375.0725 578.930004 391.7725 595.640004 391.7725 595.640004 375.0725 612.340004 375.0725 612.340004 358.3625 595.640004 358.3625 595.640004 341.6525 578.930004 341.6525 578.930004 358.3625 562.220004 358.3625"></polygon>
            <rect id="Rectangle" fill="#29282E" fill-rule="nonzero" mask="url(#mask-0o933dfuv6-2)" x="612.340004" y="241.4125" width="50.12" height="50.12"></rect>
            <rect id="Rectangle" fill="#35333B" fill-rule="nonzero" mask="url(#mask-0o933dfuv6-2)" x="645.760004" y="241.4125" width="16.71" height="16.71"></rect>
            <rect id="Rectangle" fill="#35333B" fill-rule="nonzero" mask="url(#mask-0o933dfuv6-2)" x="645.760004" y="274.8325" width="16.71" height="16.71"></rect>
            <rect id="Rectangle" fill="#35333B" fill-rule="nonzero" mask="url(#mask-0o933dfuv6-2)" x="612.340004" y="241.4125" width="16.71" height="16.71"></rect>
            <rect id="Rectangle" fill="#35333B" fill-rule="nonzero" mask="url(#mask-0o933dfuv6-2)" x="612.340004" y="274.8325" width="16.71" height="16.71"></rect>
            <rect id="Rectangle" fill="#3D3C43" fill-rule="nonzero" mask="url(#mask-0o933dfuv6-2)" x="562.220004" y="391.7725" width="100.24" height="75.18"></rect>
            <rect id="Rectangle" fill="#2E2C39" fill-rule="nonzero" mask="url(#mask-0o933dfuv6-2)" x="562.220004" y="426.5525" width="100.24" height="10.64"></rect>
            <rect id="Rectangle" fill="#2E2C39" fill-rule="nonzero" mask="url(#mask-0o933dfuv6-2)" x="562.220004" y="406.5025" width="100.24" height="10.64"></rect>
            <rect id="Rectangle" fill="#2E2C39" fill-rule="nonzero" mask="url(#mask-0o933dfuv6-2)" x="562.220004" y="391.7725" width="100.24" height="5.32"></rect>
            <rect id="Rectangle" fill="#2E2C39" fill-rule="nonzero" mask="url(#mask-0o933dfuv6-2)" x="562.220004" y="446.6025" width="100.24" height="10.64"></rect>
            <rect id="Rectangle" fill="#2E2C39" fill-rule="nonzero" mask="url(#mask-0o933dfuv6-2)" x="512.100004" y="341.6525" width="50.12" height="50.12"></rect>
            <path d="M562.220004,366.7525 L537.130004,341.6525 L529.600004,341.6525 L562.220004,374.2725 L562.220004,366.7525 Z M562.220004,341.6525 L558.000004,341.6525 L562.260004,345.9225 L562.220004,341.6525 Z M562.220004,380.9225 L523.000004,341.6525 L515.480004,341.6525 L562.270004,388.4525 L562.220004,380.9225 Z M562.220004,352.5725 L551.310004,341.6525 L543.780004,341.6525 L562.220004,360.1025 L562.220004,352.5725 Z M516.370004,391.7725 L512.100004,387.5125 L512.100004,391.7725 L516.370004,391.7725 Z M530.540004,391.7725 L512.100004,373.3325 L512.100004,380.8625 L523.000004,391.7725 L530.540004,391.7725 Z M558.900004,391.7725 L512.100004,345.0025 L512.100004,352.5225 L551.370004,391.7925 L558.900004,391.7725 Z M544.720004,391.7725 L512.100004,359.1525 L512.100004,366.6825 L537.190004,391.7725 L544.720004,391.7725 Z" id="Shape" fill="#3D3C43" fill-rule="nonzero" mask="url(#mask-0o933dfuv6-2)"></path>
        </g>
    </g>
</svg>