<svg xmlns="http://www.w3.org/2000/svg" viewBox="0 0 446.32 446.46"><defs><style>.cls-1{fill:#3da3dc;}.cls-2{fill:#dedc03;}.cls-3{fill:#060306;}.cls-4{fill:#0b56a1;}.cls-5{fill:#fff;}</style></defs><g id="Layer_2" data-name="Layer 2"><g id="Capa_1" data-name="Capa 1"><rect class="cls-1" y="89.29" width="89.26" height="89.29"/><ellipse class="cls-2" cx="44.63" cy="133.94" rx="44.63" ry="44.65"/><rect class="cls-2" x="357.06" width="89.26" height="89.29"/><path class="cls-3" d="M357.06,0a44.63,44.63,0,1,0,89.26,0Z"/><rect class="cls-4" x="178.53" y="357.17" width="89.26" height="89.29"/><path class="cls-3" d="M178.53,357.17a89.28,89.28,0,0,0,89.26,89.29V357.17Z"/><rect class="cls-4" y="357.17" width="89.26" height="89.29"/><path class="cls-2" d="M0,357.17a89.28,89.28,0,0,0,89.26,89.29V357.17Z"/><rect class="cls-5" y="267.87" width="89.26" height="89.29"/><path class="cls-1" d="M0,267.87a89.28,89.28,0,0,0,89.26,89.3v-89.3Z"/><rect class="cls-2" y="178.58" width="89.26" height="89.29"/><path class="cls-3" d="M0,178.58a89.28,89.28,0,0,0,89.26,89.29V178.58Z"/><rect class="cls-5" width="89.26" height="89.29"/><path class="cls-3" d="M0,89.29H89.26A44.63,44.63,0,1,0,0,89.29Z"/><path class="cls-3" d="M44.63,44.65A44.64,44.64,0,0,0,89.26,0H0A44.64,44.64,0,0,0,44.63,44.65Z"/><rect class="cls-5" x="89.26" y="89.29" width="89.26" height="89.29"/><path class="cls-3" d="M178.53,133.94A44.64,44.64,0,0,0,133.9,89.29H89.26v44.65a44.65,44.65,0,0,0,44.64,44.64h44.63Z"/><rect class="cls-1" x="89.26" width="89.26" height="89.29"/><ellipse class="cls-2" cx="156.21" cy="66.97" rx="22.32" ry="22.32"/><ellipse class="cls-2" cx="111.58" cy="66.97" rx="22.32" ry="22.32"/><ellipse class="cls-2" cx="156.21" cy="22.32" rx="22.32" ry="22.32"/><ellipse class="cls-2" cx="111.58" cy="22.32" rx="22.32" ry="22.32"/><rect class="cls-4" x="89.26" y="178.58" width="178.53" height="178.58"/><rect class="cls-2" x="267.79" y="267.87" width="89.26" height="89.29"/><path class="cls-3" d="M312.43,357.17h44.63V312.52A44.64,44.64,0,0,1,312.43,357.17Z"/><path class="cls-3" d="M357.06,312.52V267.87H312.43A44.64,44.64,0,0,1,357.06,312.52Z"/><path class="cls-3" d="M290.11,312.52a22.32,22.32,0,0,0-22.32-22.32v44.64A22.32,22.32,0,0,0,290.11,312.52Z"/><path class="cls-3" d="M312.43,312.52a44.65,44.65,0,0,1-44.64,44.65h44.64V334.84a22.32,22.32,0,0,0,0-44.64V267.87H267.79A44.65,44.65,0,0,1,312.43,312.52Z"/><path class="cls-1" d="M178.53,89.29V96H350.35V267.87h6.71V89.29Zm0,17.19v6.71H333.17V267.87h6.71V106.48H178.53Zm0,17.19v6.7H316v137.5h6.7V123.67H178.53Zm0,17.18v6.71H298.81V267.87h6.7v-127h-127Zm0,17.19v6.71H281.62V267.87h6.71V158H178.53Zm0,17.19v6.71h85.91v85.93h6.71V175.23H178.53Zm0,17.19v6.7h68.73v68.75H254V192.42H178.53Z"/><rect class="cls-2" x="267.79" y="357.17" width="89.26" height="89.29"/><polygon class="cls-3" points="267.79 446.46 357.06 446.46 312.43 401.81 357.06 357.17 267.79 357.17 312.43 401.81 267.79 446.46"/><rect class="cls-1" x="357.06" y="89.29" width="89.26" height="89.29"/><path class="cls-5" d="M386.81,119.06v14.88h59.51V119.06Zm0-29.77v14.88h59.51V89.29Zm59.51,59.53H386.81V163.7h59.51Z"/><path class="cls-5" d="M357.06,133.94v14.88h29.75V133.94Zm0-29.77v14.89h29.75V104.17Zm29.75,59.53H357.06v14.88h29.75Z"/><rect class="cls-2" x="357.06" y="178.58" width="89.26" height="89.29"/><rect class="cls-4" x="357.06" y="227.42" width="89.26" height="9.48"/><rect class="cls-4" x="357.06" y="245.28" width="89.26" height="9.48"/><rect class="cls-4" x="357.06" y="263.13" width="89.26" height="4.74"/><rect class="cls-4" x="357.06" y="209.56" width="89.26" height="9.48"/><rect class="cls-4" x="357.06" y="178.58" width="89.26" height="4.74"/><rect class="cls-4" x="357.06" y="191.7" width="89.26" height="9.48"/><rect class="cls-1" x="357.06" y="357.17" width="89.26" height="89.29"/><polygon class="cls-2" points="357.06 406 357.06 415.48 415.36 415.48 415.36 357.17 405.88 357.17 405.88 406 357.06 406"/><polygon class="cls-2" points="357.06 441.72 357.06 446.46 446.32 446.46 446.32 357.17 441.58 357.17 441.58 441.72 357.06 441.72"/><polygon class="cls-2" points="357.06 423.86 357.06 433.34 433.21 433.34 433.21 357.17 423.73 357.17 423.73 423.86 357.06 423.86"/><rect class="cls-2" x="357.06" y="357.17" width="4.74" height="4.74"/><polygon class="cls-2" points="357.06 388.14 357.06 397.62 397.5 397.62 397.5 357.17 388.03 357.17 388.03 388.14 357.06 388.14"/><polygon class="cls-2" points="357.06 370.28 357.06 379.76 379.65 379.76 379.65 357.17 370.17 357.17 370.17 370.28 357.06 370.28"/><rect class="cls-5" x="357.06" y="267.87" width="89.26" height="89.29"/><polygon class="cls-3" points="397.5 267.87 388.03 267.87 388.03 326.19 446.32 326.19 446.32 316.71 397.5 316.71 397.5 267.87"/><polygon class="cls-3" points="361.8 267.87 357.06 267.87 357.06 357.17 446.32 357.17 446.32 352.43 361.8 352.43 361.8 267.87"/><polygon class="cls-3" points="379.65 267.87 370.17 267.87 370.17 344.05 446.32 344.05 446.32 334.57 379.65 334.57 379.65 267.87"/><rect class="cls-3" x="441.58" y="267.87" width="4.74" height="4.74"/><polygon class="cls-3" points="415.36 267.87 405.88 267.87 405.88 308.33 446.32 308.33 446.32 298.85 415.36 298.85 415.36 267.87"/><polygon class="cls-3" points="433.21 267.87 423.73 267.87 423.73 290.47 446.32 290.47 446.32 280.99 433.21 280.99 433.21 267.87"/><path class="cls-4" d="M89.26,267.87a89.27,89.27,0,1,0,89.27-89.29A89.29,89.29,0,0,0,89.26,267.87Zm133.9,0a44.63,44.63,0,1,1-44.63-44.64A44.64,44.64,0,0,1,223.16,267.87Z"/><rect class="cls-5" x="178.53" width="89.26" height="89.29"/><polygon class="cls-1" points="223.16 0 178.53 44.65 223.16 89.29 223.16 44.65 267.79 89.29 267.79 0 223.16 44.65 223.16 0"/><rect class="cls-3" x="267.79" width="89.26" height="89.29"/><polygon class="cls-4" points="312.43 0 267.79 44.65 312.43 89.29 312.43 44.65 357.06 89.29 357.06 0 312.43 44.65 312.43 0"/><path class="cls-5" d="M161.85,247.57l-47.73,41.85a5,5,0,0,0-2.54,4.11v38.7a1.61,1.61,0,0,0,2.54,1.57L161.85,292a6.32,6.32,0,0,1,5.08,0l46.78,41.84a1.61,1.61,0,0,0,2.54-1.57v-38.7c0-2.95-3.2-4.75-5.15-6.44-2.57-2.24-37.17-33.25-44.17-39.52a6.41,6.41,0,0,0-5.08,0Z"/></g></g></svg>