<svg xmlns="http://www.w3.org/2000/svg" viewBox="0 0 413.16 152.48"><defs><style>.cls-1,.cls-2{fill:#0755a1;}.cls-1{stroke:#fff;stroke-miterlimit:10;}.cls-3{fill:#1d1d1b;}</style></defs><g id="Layer_2" data-name="Layer 2"><g id="Capa_1" data-name="Capa 1"><path class="cls-1" d="M59.41,51.24,32.47,74.86A2.85,2.85,0,0,0,31,77.18V99a.91.91,0,0,0,1.43.89L59.41,76.3a3.58,3.58,0,0,1,2.87,0l26.4,23.62A.92.92,0,0,0,90.12,99V77.18c0-1.66-1.81-2.68-2.91-3.63-1.45-1.26-21-18.77-24.93-22.31a3.67,3.67,0,0,0-2.87,0Z"/><polygon class="cls-2" points="152.48 43.91 152.48 0 0 0 0 152.48 152.48 152.48 152.48 108.57 138.91 108.57 138.91 138.91 13.57 138.91 13.57 13.57 138.91 13.57 138.91 43.91 152.48 43.91"/><path class="cls-3" d="M115.68,45.22A6.31,6.31,0,0,1,120,46.78a4.8,4.8,0,0,1,1.77,3.75V51A4.71,4.71,0,0,1,120,54.7a6.38,6.38,0,0,1-4.33,1.52,6.51,6.51,0,0,1-4.36-1.52,4.68,4.68,0,0,1-1.8-3.72v-.45a4.77,4.77,0,0,1,1.8-3.75A6.44,6.44,0,0,1,115.68,45.22Zm5.42,16.63.08,35.72H110.27l-.08-35.65Z"/><path class="cls-3" d="M126.29,97.57V61.92H137.2v6.14a16,16,0,0,1,4.32-4.75,11.13,11.13,0,0,1,6.81-2,18.59,18.59,0,0,1,7.6,1.39,13.22,13.22,0,0,1,5,3.72,14.41,14.41,0,0,1,2.71,5.47,26,26,0,0,1,.83,6.63v.62c0,.37,0,1.2,0,2.49s0,3.19,0,5.69V97.57H153.45V80.1a22.73,22.73,0,0,0-.27-3.4,10.13,10.13,0,0,0-1.05-3.3,6.81,6.81,0,0,0-2.29-2.52,7.11,7.11,0,0,0-4-1,8.27,8.27,0,0,0-6.43,2.79c-1.68,1.85-2.52,4.53-2.52,8v2.13c0,1.08,0,2.75,0,5s0,5.51,0,9.74Z"/><path class="cls-3" d="M174.81,45.22a6.33,6.33,0,0,1,4.33,1.56,4.82,4.82,0,0,1,1.76,3.75V51a4.73,4.73,0,0,1-1.76,3.72,6.4,6.4,0,0,1-4.33,1.52,6.51,6.51,0,0,1-4.36-1.52A4.66,4.66,0,0,1,168.64,51v-.45a4.75,4.75,0,0,1,1.81-3.75A6.44,6.44,0,0,1,174.81,45.22Zm5.42,16.63.07,35.72H169.39l-.07-35.65Z"/><path class="cls-3" d="M183.91,79.71a18.25,18.25,0,0,1,1.47-7.38,17.36,17.36,0,0,1,4.06-5.79,18.94,18.94,0,0,1,6.21-3.82,21.72,21.72,0,0,1,7.82-1.39,18,18,0,0,1,4.55.55,17.65,17.65,0,0,1,3.73,1.43,14.52,14.52,0,0,1,2.89,2,19.18,19.18,0,0,1,2.15,2.2l-7.6,5.5c-.05-.09-.19-.29-.41-.61a6.14,6.14,0,0,0-1-1.07,6.61,6.61,0,0,0-1.73-1,6.52,6.52,0,0,0-2.56-.45,8.1,8.1,0,0,0-4.1,1,8.61,8.61,0,0,0-2.74,2.43,9.23,9.23,0,0,0-1.51,3.2,12.33,12.33,0,0,0,0,6.6,9.32,9.32,0,0,0,1.51,3.2,8.61,8.61,0,0,0,2.74,2.43,8.21,8.21,0,0,0,4.1,1,6.52,6.52,0,0,0,2.56-.45,6.89,6.89,0,0,0,1.73-1,5.57,5.57,0,0,0,1-1.1c.22-.34.36-.56.41-.65l8.05,5a17.22,17.22,0,0,1-2.07,2.36,14.2,14.2,0,0,1-3,2.16,18,18,0,0,1-3.91,1.59,17.76,17.76,0,0,1-4.82.61,21.51,21.51,0,0,1-7.82-1.39,18.92,18.92,0,0,1-6.21-3.81,17.23,17.23,0,0,1-4.06-5.83A18.26,18.26,0,0,1,183.91,79.71Z"/><path class="cls-3" d="M226.79,45.22a6.33,6.33,0,0,1,4.33,1.56,4.82,4.82,0,0,1,1.76,3.75V51a4.73,4.73,0,0,1-1.76,3.72,6.4,6.4,0,0,1-4.33,1.52,6.49,6.49,0,0,1-4.36-1.52A4.66,4.66,0,0,1,220.62,51v-.45a4.75,4.75,0,0,1,1.81-3.75A6.42,6.42,0,0,1,226.79,45.22Zm5.42,16.63.07,35.72H221.37l-.07-35.65Z"/><path class="cls-3" d="M235.89,79.45A22.35,22.35,0,0,1,237,72.62a17.46,17.46,0,0,1,3.23-6,15.83,15.83,0,0,1,5.49-4.2,17.73,17.73,0,0,1,7.75-1.59,12.8,12.8,0,0,1,7.15,1.84,10.65,10.65,0,0,1,4.06,5.08V62h10.91V97.63H264.63V91.48a21.21,21.21,0,0,1-1.92,2.66,13.73,13.73,0,0,1-2.44,2.26,11.6,11.6,0,0,1-6.85,2.14,16.8,16.8,0,0,1-7.75-1.69,16.44,16.44,0,0,1-5.49-4.39A18.44,18.44,0,0,1,237,86.34,22.87,22.87,0,0,1,235.89,79.45Zm20,10.48a7.88,7.88,0,0,0,4.18-1,9.33,9.33,0,0,0,2.78-2.59,10,10,0,0,0,1.54-3.4,14.66,14.66,0,0,0,.46-3.46,13.58,13.58,0,0,0-.46-3.33,8.91,8.91,0,0,0-4.32-5.66,9.47,9.47,0,0,0-8.35,0A8.51,8.51,0,0,0,249,72.88a9.42,9.42,0,0,0-1.5,3.24,13.54,13.54,0,0,0-.45,3.33,17.37,17.37,0,0,0,.37,3.46,9.85,9.85,0,0,0,1.39,3.4,8,8,0,0,0,7.11,3.62Z"/><path class="cls-3" d="M278.92,62h3.61a2.66,2.66,0,0,0,1.58-.48,2,2,0,0,0,.83-1.2l2-6.8h8.42V62h9.93v7.76h-9.93v12a7.75,7.75,0,0,0,1.84,5.6q1.84,1.91,5.91,1.91h.22a7.63,7.63,0,0,0,2.56-.45l1.88,8.8c-.7.13-1.58.26-2.63.39a23.66,23.66,0,0,1-2.41.19c-1.25,0-2.58-.06-4-.16a24.83,24.83,0,0,1-4.14-.68,16.82,16.82,0,0,1-3.88-1.52,11.46,11.46,0,0,1-5.45-6.51,16.65,16.65,0,0,1-.83-5.56v-14h-5.49Z"/><path class="cls-3" d="M316.54,45.22a6.3,6.3,0,0,1,4.32,1.56,4.8,4.8,0,0,1,1.77,3.75V51a4.71,4.71,0,0,1-1.77,3.72,6.37,6.37,0,0,1-4.32,1.52,6.54,6.54,0,0,1-4.37-1.52,4.68,4.68,0,0,1-1.8-3.72v-.45a4.77,4.77,0,0,1,1.8-3.75A6.47,6.47,0,0,1,316.54,45.22ZM322,61.85,322,97.57H311.12L311,61.92Z"/><path class="cls-3" d="M339,97.57,324.51,61.85h11.28l8.88,26.4,9.1-26.33,11.14-.07L350.39,97.57Z"/><path class="cls-3" d="M362.2,79.45a22.64,22.64,0,0,1,1.05-6.83,17.46,17.46,0,0,1,3.23-6,16,16,0,0,1,5.5-4.2,17.65,17.65,0,0,1,7.74-1.59,12.77,12.77,0,0,1,7.15,1.84,10.59,10.59,0,0,1,4.06,5.08V62h10.91V97.63H390.93V91.48A22.17,22.17,0,0,1,389,94.14a13.79,13.79,0,0,1-2.45,2.26A11.58,11.58,0,0,1,383.49,98a12,12,0,0,1-3.77.58,16.45,16.45,0,0,1-13.24-6.08,18.44,18.44,0,0,1-3.23-6.12A23.18,23.18,0,0,1,362.2,79.45Zm20,10.48a7.86,7.86,0,0,0,4.17-1,9.36,9.36,0,0,0,2.79-2.59,10.16,10.16,0,0,0,1.54-3.4,14.62,14.62,0,0,0,.45-3.46,13.54,13.54,0,0,0-.45-3.33,9.14,9.14,0,0,0-1.54-3.24,9,9,0,0,0-2.79-2.42,9.47,9.47,0,0,0-8.35,0,8.47,8.47,0,0,0-2.74,2.42,9.26,9.26,0,0,0-1.51,3.24,13.54,13.54,0,0,0-.45,3.33,16.7,16.7,0,0,0,.38,3.46,9.66,9.66,0,0,0,1.39,3.4,7.95,7.95,0,0,0,7.11,3.62Z"/><path class="cls-3" d="M287.37,133a7.1,7.1,0,0,1-3.29-.7,4.65,4.65,0,0,1-2.06-2.18,8.74,8.74,0,0,1-.71-3.77,8.13,8.13,0,0,1,.81-3.88,4.94,4.94,0,0,1,2.24-2.21,7.28,7.28,0,0,1,3.32-.71,8.86,8.86,0,0,1,2.33.26,9.16,9.16,0,0,1,1.71.62l-1,2.74a15.62,15.62,0,0,0-1.56-.55,4.8,4.8,0,0,0-1.44-.22,2.6,2.6,0,0,0-1.54.44,2.55,2.55,0,0,0-.92,1.3,6.81,6.81,0,0,0-.3,2.19,5.88,5.88,0,0,0,.33,2.13,2.43,2.43,0,0,0,.94,1.26,2.54,2.54,0,0,0,1.49.41,6.17,6.17,0,0,0,2-.29,8,8,0,0,0,1.68-.83v3a6,6,0,0,1-1.7.73A9.44,9.44,0,0,1,287.37,133Z"/><path class="cls-3" d="M306.12,126.28a8.8,8.8,0,0,1-.44,2.88,5.71,5.71,0,0,1-1.26,2.11,5.31,5.31,0,0,1-2,1.31,7.52,7.52,0,0,1-2.63.44,7,7,0,0,1-2.51-.44,5.36,5.36,0,0,1-2-1.31,5.92,5.92,0,0,1-1.3-2.11,8.53,8.53,0,0,1-.46-2.88,8,8,0,0,1,.77-3.66,5.28,5.28,0,0,1,2.18-2.28,7,7,0,0,1,3.38-.77,6.68,6.68,0,0,1,3.23.77,5.55,5.55,0,0,1,2.22,2.28A7.61,7.61,0,0,1,306.12,126.28Zm-9,0a7.26,7.26,0,0,0,.28,2.14,2.65,2.65,0,0,0,.87,1.32,2.56,2.56,0,0,0,1.55.44,2.49,2.49,0,0,0,1.52-.44,2.57,2.57,0,0,0,.86-1.32,8.66,8.66,0,0,0,0-4.29,2.49,2.49,0,0,0-.86-1.28,2.63,2.63,0,0,0-1.55-.43,2.24,2.24,0,0,0-2,1A5.22,5.22,0,0,0,297.14,126.28Z"/><path class="cls-3" d="M316.41,119.57a4.78,4.78,0,0,1,3.34,1.13,4.61,4.61,0,0,1,1.27,3.63v8.46h-3.54v-7.58a3.57,3.57,0,0,0-.51-2.1,1.8,1.8,0,0,0-1.58-.71,2.31,2.31,0,0,0-2.22,1.1,7,7,0,0,0-.59,3.18v6.11H309v-13h2.7l.48,1.66h.2a3.5,3.5,0,0,1,1-1.09,4.55,4.55,0,0,1,1.38-.62A6.25,6.25,0,0,1,316.41,119.57Z"/><path class="cls-3" d="M333.72,128.93a3.91,3.91,0,0,1-.62,2.24,3.78,3.78,0,0,1-1.85,1.38,8.77,8.77,0,0,1-3.07.47,14.16,14.16,0,0,1-2.33-.17,10,10,0,0,1-2-.58v-2.93a12.89,12.89,0,0,0,2.27.78,8.61,8.61,0,0,0,2.13.31,2.65,2.65,0,0,0,1.48-.31.94.94,0,0,0,.44-.8,1,1,0,0,0-.18-.59,2.34,2.34,0,0,0-.77-.59c-.39-.22-1-.51-1.85-.87a11.61,11.61,0,0,1-2-1,3.46,3.46,0,0,1-1.16-1.23,3.93,3.93,0,0,1-.37-1.82,3,3,0,0,1,1.39-2.71,6.78,6.78,0,0,1,3.75-.91,10.74,10.74,0,0,1,2.3.24,11,11,0,0,1,2.26.78l-1.07,2.55a18.18,18.18,0,0,0-1.82-.68,5.63,5.63,0,0,0-1.73-.27,2.54,2.54,0,0,0-1.17.21.67.67,0,0,0-.4.64.85.85,0,0,0,.2.55,2.4,2.4,0,0,0,.79.54c.39.2,1,.46,1.73.77a13.61,13.61,0,0,1,1.91.94,3.78,3.78,0,0,1,1.26,1.22A3.59,3.59,0,0,1,333.72,128.93Z"/><path class="cls-3" d="M348.39,119.81v13h-2.72l-.47-1.66H345a3.7,3.7,0,0,1-1,1.08,4.51,4.51,0,0,1-1.38.61,6.31,6.31,0,0,1-1.57.2,5.58,5.58,0,0,1-2.43-.49A3.57,3.57,0,0,1,337,131a5.66,5.66,0,0,1-.57-2.72v-8.46H340v7.58a3.66,3.66,0,0,0,.5,2.1,1.81,1.81,0,0,0,1.59.71,2.62,2.62,0,0,0,1.69-.49,2.71,2.71,0,0,0,.87-1.45,9.74,9.74,0,0,0,.25-2.34v-6.11Z"/><path class="cls-3" d="M355.64,132.79H352.1V114.73h3.54Z"/><path class="cls-3" d="M364.82,130.2a5.38,5.38,0,0,0,1.14-.12,8.78,8.78,0,0,0,1.09-.29v2.64a6.61,6.61,0,0,1-1.41.42,9.52,9.52,0,0,1-1.84.17,5.47,5.47,0,0,1-2.08-.38,2.88,2.88,0,0,1-1.45-1.31,5.34,5.34,0,0,1-.53-2.6v-6.26h-1.69V121l1.95-1.18,1-2.74h2.26v2.76h3.63v2.66h-3.63v6.26a1.37,1.37,0,0,0,.42,1.1A1.65,1.65,0,0,0,364.82,130.2Z"/><path class="cls-3" d="M381.47,126.28a8.8,8.8,0,0,1-.44,2.88,5.71,5.71,0,0,1-1.26,2.11,5.24,5.24,0,0,1-2,1.31,7.44,7.44,0,0,1-2.63.44,7,7,0,0,1-2.51-.44,5.4,5.4,0,0,1-2-1.31,5.79,5.79,0,0,1-1.3-2.11,8.29,8.29,0,0,1-.46-2.88,8,8,0,0,1,.76-3.66,5.25,5.25,0,0,1,2.19-2.28,7,7,0,0,1,3.37-.77,6.69,6.69,0,0,1,3.24.77,5.46,5.46,0,0,1,2.21,2.28A7.61,7.61,0,0,1,381.47,126.28Zm-9,0a6.94,6.94,0,0,0,.28,2.14,2.63,2.63,0,0,0,3.94,1.32,2.63,2.63,0,0,0,.86-1.32,8.66,8.66,0,0,0,0-4.29,2.51,2.51,0,0,0-.87-1.28,2.6,2.6,0,0,0-1.54-.43,2.24,2.24,0,0,0-2,1A5.32,5.32,0,0,0,372.5,126.28Z"/><path class="cls-3" d="M391.64,119.57l.62,0a5.2,5.2,0,0,1,.57.07l-.26,3.32a2.26,2.26,0,0,0-.5-.09c-.21,0-.39,0-.55,0a4.9,4.9,0,0,0-1.33.17,3.33,3.33,0,0,0-1.15.56,2.74,2.74,0,0,0-.81,1,3.63,3.63,0,0,0-.3,1.55v6.61h-3.54v-13h2.69l.52,2.18h.17a5.81,5.81,0,0,1,1-1.21,4.5,4.5,0,0,1,1.31-.88A3.85,3.85,0,0,1,391.64,119.57Z"/><path class="cls-3" d="M401.53,114.58v.24c-.23.22-.52.48-.89.8s-.75.65-1.17,1-.83.68-1.23,1-.75.57-1.05.78h-2.36v-.31c.26-.29.55-.64.89-1s.67-.83,1-1.26.61-.83.84-1.18Zm-2.8,18.21h-3.54v-13h3.54Z"/><path class="cls-3" d="M407.76,119.54a6.15,6.15,0,0,1,4,1.14,4.2,4.2,0,0,1,1.4,3.46v8.65h-2.47L410,131h-.09a6.14,6.14,0,0,1-1.14,1.14,3.84,3.84,0,0,1-1.33.65,7,7,0,0,1-1.84.21,4.75,4.75,0,0,1-2.06-.44,3.27,3.27,0,0,1-1.43-1.35,4.61,4.61,0,0,1-.52-2.32,3.42,3.42,0,0,1,1.45-3,8.38,8.38,0,0,1,4.35-1.08l2.25-.07v-.57a1.94,1.94,0,0,0-.53-1.5,2.2,2.2,0,0,0-1.49-.47,6.7,6.7,0,0,0-1.84.26,14.21,14.21,0,0,0-1.81.68l-1.18-2.39a9.79,9.79,0,0,1,2.32-.86A11.05,11.05,0,0,1,407.76,119.54Zm1.88,7.24-1.37,0a3.89,3.89,0,0,0-2.38.62,1.86,1.86,0,0,0-.67,1.49,1.34,1.34,0,0,0,.47,1.16,2.1,2.1,0,0,0,1.25.34,2.85,2.85,0,0,0,1.92-.67,2.4,2.4,0,0,0,.78-1.92Z"/></g></g></svg>